<svg width="72" height="24" viewBox="0 0 72 24" fill="none" xmlns="http://www.w3.org/2000/svg">
<g clip-path="url(#clip0_47_3193)">
<path d="M13.5 6.75C13.5 10.478 10.478 13.5 6.75 13.5C3.02208 13.5 0 10.478 0 6.75C0 3.02208 3.02208 0 6.75 0C10.478 0 13.5 3.02208 13.5 6.75Z" fill="white"/>
<path d="M6.74995 22.5C3.01862 22.5 0 22.7456 0 22.991V23.5093C0 23.7546 3.01862 24 6.74995 24C10.4813 24 13.4999 23.7546 13.4999 23.5093V22.991C13.5209 22.7456 10.4813 22.5 6.74995 22.5Z" fill="white"/>
<path d="M0 18.375V17.625C0 16.3823 3.02208 15.375 6.75 15.375C10.478 15.375 13.5 16.3823 13.5 17.625V18.375C13.5 19.6177 10.478 20.625 6.75 20.625C3.02208 20.625 0 19.6177 0 18.375Z" fill="white"/>
<path d="M36.8204 15.188C37.6877 16.0142 38.7875 16.4378 40.1201 16.4378C40.4797 16.4378 41.8545 16.3743 42.8063 15.8235L44.1179 17.8571C44.1179 17.8571 42.6583 19.0434 39.9721 19.0434C37.8358 19.0434 36.0591 18.3443 34.7265 17.0733C33.3305 15.7388 32.6324 14.0442 32.6324 11.9894C32.6324 9.91358 33.3305 8.21896 34.7053 6.9056C36.0379 5.65581 37.8146 4.93561 39.9721 4.93561C42.6583 4.93561 44.1179 6.12182 44.1179 6.12182L42.8063 8.15536C41.7065 7.51988 40.0144 7.54111 40.0144 7.54111C38.7453 7.54111 37.6665 7.96471 36.7782 8.81206C35.9321 9.63818 35.5091 10.6973 35.5091 11.9894C35.5091 13.2816 35.9321 14.3408 36.8204 15.188Z" fill="white"/>
<path d="M46.5074 18.7892H49.2996V7.71053H55.0952V18.7892H57.8659V5.21097H46.5074V18.7892Z" fill="white"/>
<path fill-rule="evenodd" clip-rule="evenodd" d="M29.3073 11.121C28.3978 10.2948 27.1499 9.87121 25.5636 9.87121H22.6446V7.71053H29.7303V5.21097H19.8525V18.7892H25.5636C27.1499 18.7892 28.3978 18.3866 29.3286 17.5605C30.2381 16.7132 30.7034 15.6541 30.7034 14.3408C30.7034 13.0486 30.2381 11.9683 29.3073 11.121ZM27.2345 15.8024C26.7904 16.1413 26.1769 16.3319 25.3521 16.3319H22.6446V12.2225H25.3521C26.1557 12.2225 26.7692 12.4131 27.2134 12.7733C27.6575 13.1333 27.8902 13.6417 27.8902 14.2984C27.8902 14.9551 27.6575 15.4634 27.2345 15.8024Z" fill="white"/>
<path fill-rule="evenodd" clip-rule="evenodd" d="M66.8583 9.87121C68.4447 9.87121 69.6927 10.2948 70.6023 11.121C71.5329 11.9683 71.9982 13.0486 71.9982 14.3408C71.9982 15.6541 71.5329 16.7132 70.6233 17.5605C69.6927 18.3866 68.4447 18.7892 66.8583 18.7892H61.1475V5.21097H71.0253V7.71053H63.9394V9.87121H66.8583ZM66.6468 16.3319C67.4718 16.3319 68.0852 16.1413 68.5294 15.8024C68.9525 15.4634 69.1852 14.9551 69.1852 14.2984C69.1852 13.6417 68.9524 13.1333 68.5082 12.7733C68.0641 12.4131 67.4506 12.2225 66.6468 12.2225H63.9394V16.3319H66.6468Z" fill="white"/>
</g>
<defs>
<clipPath id="clip0_47_3193">
<rect width="72" height="24" fill="white"/>
</clipPath>
</defs>
</svg>
