<svg width="259" height="56" viewBox="0 0 259 56" fill="none" xmlns="http://www.w3.org/2000/svg">
<path d="M0 13C0 5.8203 6.26801 0 14 0H56V26H14C6.26801 26 0 20.1797 0 13Z" fill="url(#paint0_linear_301_34860)"/>
<path d="M0 30H42C49.732 30 56 35.8203 56 43C56 50.1797 49.732 56 42 56H0V30Z" fill="url(#paint1_linear_301_34860)"/>
<path d="M94.6 23.288C93.56 23.288 92.68 23.176 91.96 22.952C91.256 22.728 90.68 22.432 90.232 22.064C89.8 21.696 89.472 21.272 89.248 20.792C89.024 20.312 88.888 19.808 88.84 19.28H92.008C92.088 19.696 92.336 20.04 92.752 20.312C93.168 20.568 93.784 20.696 94.6 20.696C95.528 20.696 96.192 20.568 96.592 20.312C96.992 20.056 97.192 19.728 97.192 19.328C97.192 19.12 97.144 18.944 97.048 18.8C96.952 18.64 96.784 18.496 96.544 18.368C96.32 18.24 96.008 18.128 95.608 18.032C95.208 17.936 94.704 17.84 94.096 17.744C93.408 17.648 92.768 17.512 92.176 17.336C91.584 17.16 91.064 16.92 90.616 16.616C90.184 16.312 89.84 15.936 89.584 15.488C89.328 15.024 89.2 14.464 89.2 13.808C89.2 13.28 89.32 12.784 89.56 12.32C89.8 11.856 90.152 11.456 90.616 11.12C91.08 10.768 91.648 10.496 92.32 10.304C92.992 10.096 93.752 9.992 94.6 9.992C95.512 9.992 96.288 10.104 96.928 10.328C97.584 10.552 98.12 10.856 98.536 11.24C98.952 11.608 99.264 12.032 99.472 12.512C99.68 12.992 99.816 13.488 99.88 14H96.712C96.584 13.536 96.336 13.184 95.968 12.944C95.6 12.704 95.144 12.584 94.6 12.584C93.8 12.584 93.224 12.712 92.872 12.968C92.536 13.208 92.368 13.512 92.368 13.88C92.368 14.072 92.408 14.24 92.488 14.384C92.568 14.528 92.712 14.656 92.92 14.768C93.144 14.88 93.44 14.984 93.808 15.08C94.192 15.16 94.672 15.24 95.248 15.32C95.968 15.416 96.632 15.56 97.24 15.752C97.864 15.928 98.408 16.168 98.872 16.472C99.336 16.776 99.696 17.16 99.952 17.624C100.224 18.088 100.36 18.64 100.36 19.28C100.36 19.856 100.24 20.392 100 20.888C99.76 21.368 99.4 21.792 98.92 22.16C98.44 22.512 97.84 22.792 97.12 23C96.4 23.192 95.56 23.288 94.6 23.288ZM105.971 23.288C105.283 23.288 104.675 23.192 104.147 23C103.619 22.792 103.171 22.512 102.803 22.16C102.435 21.792 102.155 21.368 101.963 20.888C101.771 20.392 101.675 19.856 101.675 19.28C101.675 16.72 103.195 15.44 106.235 15.44H110.027V14.84C110.027 14.008 109.835 13.424 109.451 13.088C109.083 12.752 108.491 12.584 107.675 12.584C106.955 12.584 106.435 12.712 106.115 12.968C105.795 13.208 105.611 13.512 105.563 13.88H102.395C102.427 13.336 102.563 12.824 102.803 12.344C103.059 11.864 103.411 11.456 103.859 11.12C104.323 10.768 104.883 10.496 105.539 10.304C106.195 10.096 106.947 9.992 107.795 9.992C108.611 9.992 109.347 10.08 110.003 10.256C110.675 10.432 111.243 10.72 111.707 11.12C112.187 11.504 112.555 12.008 112.811 12.632C113.067 13.256 113.195 14.008 113.195 14.888V19.76C113.195 20.432 113.203 21.024 113.219 21.536C113.251 22.032 113.299 22.52 113.363 23H110.411C110.347 22.648 110.307 22.384 110.291 22.208C110.291 22.016 110.291 21.736 110.291 21.368C109.939 21.88 109.403 22.328 108.683 22.712C107.979 23.096 107.075 23.288 105.971 23.288ZM106.955 20.84C107.339 20.84 107.715 20.792 108.083 20.696C108.451 20.584 108.779 20.424 109.067 20.216C109.355 19.992 109.587 19.712 109.763 19.376C109.939 19.04 110.027 18.648 110.027 18.2V17.6H106.835C106.227 17.6 105.747 17.744 105.395 18.032C105.059 18.304 104.891 18.68 104.891 19.16C104.891 19.672 105.067 20.08 105.419 20.384C105.771 20.688 106.283 20.84 106.955 20.84ZM115.48 10.28H118.408V12.176C118.552 11.888 118.736 11.616 118.96 11.36C119.2 11.104 119.472 10.872 119.776 10.664C120.096 10.456 120.44 10.296 120.808 10.184C121.192 10.056 121.6 9.992 122.032 9.992C123.056 9.992 123.856 10.2 124.432 10.616C125.024 11.032 125.44 11.584 125.68 12.272C126.032 11.6 126.536 11.056 127.192 10.64C127.864 10.208 128.656 9.992 129.568 9.992C130.928 9.992 131.96 10.384 132.664 11.168C133.368 11.936 133.72 13.12 133.72 14.72V23H130.552V15.44C130.552 14.432 130.384 13.72 130.048 13.304C129.728 12.888 129.208 12.68 128.488 12.68C127.848 12.68 127.304 12.928 126.856 13.424C126.408 13.904 126.184 14.576 126.184 15.44V23H123.016V15.44C123.016 14.432 122.848 13.72 122.512 13.304C122.192 12.888 121.672 12.68 120.952 12.68C120.312 12.68 119.768 12.928 119.32 13.424C118.872 13.904 118.648 14.576 118.648 15.44V23H115.48V10.28ZM141.16 23.288C140.12 23.288 139.24 23.176 138.52 22.952C137.816 22.728 137.24 22.432 136.792 22.064C136.36 21.696 136.032 21.272 135.808 20.792C135.584 20.312 135.448 19.808 135.4 19.28H138.568C138.648 19.696 138.896 20.04 139.312 20.312C139.728 20.568 140.344 20.696 141.16 20.696C142.088 20.696 142.752 20.568 143.152 20.312C143.552 20.056 143.752 19.728 143.752 19.328C143.752 19.12 143.704 18.944 143.608 18.8C143.512 18.64 143.344 18.496 143.104 18.368C142.88 18.24 142.568 18.128 142.168 18.032C141.768 17.936 141.264 17.84 140.656 17.744C139.968 17.648 139.328 17.512 138.736 17.336C138.144 17.16 137.624 16.92 137.176 16.616C136.744 16.312 136.4 15.936 136.144 15.488C135.888 15.024 135.76 14.464 135.76 13.808C135.76 13.28 135.88 12.784 136.12 12.32C136.36 11.856 136.712 11.456 137.176 11.12C137.64 10.768 138.208 10.496 138.88 10.304C139.552 10.096 140.312 9.992 141.16 9.992C142.072 9.992 142.848 10.104 143.488 10.328C144.144 10.552 144.68 10.856 145.096 11.24C145.512 11.608 145.824 12.032 146.032 12.512C146.24 12.992 146.376 13.488 146.44 14H143.272C143.144 13.536 142.896 13.184 142.528 12.944C142.16 12.704 141.704 12.584 141.16 12.584C140.36 12.584 139.784 12.712 139.432 12.968C139.096 13.208 138.928 13.512 138.928 13.88C138.928 14.072 138.968 14.24 139.048 14.384C139.128 14.528 139.272 14.656 139.48 14.768C139.704 14.88 140 14.984 140.368 15.08C140.752 15.16 141.232 15.24 141.808 15.32C142.528 15.416 143.192 15.56 143.8 15.752C144.424 15.928 144.968 16.168 145.432 16.472C145.896 16.776 146.256 17.16 146.512 17.624C146.784 18.088 146.92 18.64 146.92 19.28C146.92 19.856 146.8 20.392 146.56 20.888C146.32 21.368 145.96 21.792 145.48 22.16C145 22.512 144.4 22.792 143.68 23C142.96 23.192 142.12 23.288 141.16 23.288ZM152.531 23.288C151.843 23.288 151.235 23.192 150.707 23C150.179 22.792 149.731 22.512 149.363 22.16C148.995 21.792 148.715 21.368 148.523 20.888C148.331 20.392 148.235 19.856 148.235 19.28C148.235 16.72 149.755 15.44 152.795 15.44H156.587V14.84C156.587 14.008 156.395 13.424 156.011 13.088C155.643 12.752 155.051 12.584 154.235 12.584C153.515 12.584 152.995 12.712 152.675 12.968C152.355 13.208 152.171 13.512 152.123 13.88H148.955C148.987 13.336 149.123 12.824 149.363 12.344C149.619 11.864 149.971 11.456 150.419 11.12C150.883 10.768 151.443 10.496 152.099 10.304C152.755 10.096 153.507 9.992 154.355 9.992C155.171 9.992 155.907 10.08 156.563 10.256C157.235 10.432 157.803 10.72 158.267 11.12C158.747 11.504 159.115 12.008 159.371 12.632C159.627 13.256 159.755 14.008 159.755 14.888V19.76C159.755 20.432 159.763 21.024 159.779 21.536C159.811 22.032 159.859 22.52 159.923 23H156.971C156.907 22.648 156.867 22.384 156.851 22.208C156.851 22.016 156.851 21.736 156.851 21.368C156.499 21.88 155.963 22.328 155.243 22.712C154.539 23.096 153.635 23.288 152.531 23.288ZM153.515 20.84C153.899 20.84 154.275 20.792 154.643 20.696C155.011 20.584 155.339 20.424 155.627 20.216C155.915 19.992 156.147 19.712 156.323 19.376C156.499 19.04 156.587 18.648 156.587 18.2V17.6H153.395C152.787 17.6 152.307 17.744 151.955 18.032C151.619 18.304 151.451 18.68 151.451 19.16C151.451 19.672 151.627 20.08 151.979 20.384C152.331 20.688 152.843 20.84 153.515 20.84ZM162.04 10.28H164.968V12.176C165.112 11.888 165.296 11.616 165.52 11.36C165.76 11.104 166.032 10.872 166.336 10.664C166.656 10.456 167 10.296 167.368 10.184C167.752 10.056 168.16 9.992 168.592 9.992C169.616 9.992 170.416 10.2 170.992 10.616C171.584 11.032 172 11.584 172.24 12.272C172.592 11.6 173.096 11.056 173.752 10.64C174.424 10.208 175.216 9.992 176.128 9.992C177.488 9.992 178.52 10.384 179.224 11.168C179.928 11.936 180.28 13.12 180.28 14.72V23H177.112V15.44C177.112 14.432 176.944 13.72 176.608 13.304C176.288 12.888 175.768 12.68 175.048 12.68C174.408 12.68 173.864 12.928 173.416 13.424C172.968 13.904 172.744 14.576 172.744 15.44V23H169.576V15.44C169.576 14.432 169.408 13.72 169.072 13.304C168.752 12.888 168.232 12.68 167.512 12.68C166.872 12.68 166.328 12.928 165.88 13.424C165.432 13.904 165.208 14.576 165.208 15.44V23H162.04V10.28ZM184.84 23.288C184.28 23.288 183.8 23.088 183.4 22.688C183 22.288 182.8 21.808 182.8 21.248C182.8 20.656 183 20.168 183.4 19.784C183.8 19.4 184.28 19.208 184.84 19.208C185.4 19.208 185.88 19.4 186.28 19.784C186.68 20.168 186.88 20.656 186.88 21.248C186.88 21.808 186.68 22.288 186.28 22.688C185.88 23.088 185.4 23.288 184.84 23.288ZM194.67 23.288C193.63 23.288 192.75 23.176 192.03 22.952C191.326 22.728 190.75 22.432 190.302 22.064C189.87 21.696 189.542 21.272 189.318 20.792C189.094 20.312 188.958 19.808 188.91 19.28H192.078C192.158 19.696 192.406 20.04 192.822 20.312C193.238 20.568 193.854 20.696 194.67 20.696C195.598 20.696 196.262 20.568 196.662 20.312C197.062 20.056 197.262 19.728 197.262 19.328C197.262 19.12 197.214 18.944 197.118 18.8C197.022 18.64 196.854 18.496 196.614 18.368C196.39 18.24 196.078 18.128 195.678 18.032C195.278 17.936 194.774 17.84 194.166 17.744C193.478 17.648 192.838 17.512 192.246 17.336C191.654 17.16 191.134 16.92 190.686 16.616C190.254 16.312 189.91 15.936 189.654 15.488C189.398 15.024 189.27 14.464 189.27 13.808C189.27 13.28 189.39 12.784 189.63 12.32C189.87 11.856 190.222 11.456 190.686 11.12C191.15 10.768 191.718 10.496 192.39 10.304C193.062 10.096 193.822 9.992 194.67 9.992C195.582 9.992 196.358 10.104 196.998 10.328C197.654 10.552 198.19 10.856 198.606 11.24C199.022 11.608 199.334 12.032 199.542 12.512C199.75 12.992 199.886 13.488 199.95 14H196.782C196.654 13.536 196.406 13.184 196.038 12.944C195.67 12.704 195.214 12.584 194.67 12.584C193.87 12.584 193.294 12.712 192.942 12.968C192.606 13.208 192.438 13.512 192.438 13.88C192.438 14.072 192.478 14.24 192.558 14.384C192.638 14.528 192.782 14.656 192.99 14.768C193.214 14.88 193.51 14.984 193.878 15.08C194.262 15.16 194.742 15.24 195.318 15.32C196.038 15.416 196.702 15.56 197.31 15.752C197.934 15.928 198.478 16.168 198.942 16.472C199.406 16.776 199.766 17.16 200.022 17.624C200.294 18.088 200.43 18.64 200.43 19.28C200.43 19.856 200.31 20.392 200.07 20.888C199.83 21.368 199.47 21.792 198.99 22.16C198.51 22.512 197.91 22.792 197.19 23C196.47 23.192 195.63 23.288 194.67 23.288ZM207.385 23.144C205.881 23.144 204.785 22.824 204.097 22.184C203.409 21.528 203.065 20.44 203.065 18.92V12.92H201.385V10.28H203.065V7.4H206.233V10.28H209.305V12.92H206.233V18.44C206.233 19.16 206.361 19.68 206.617 20C206.889 20.304 207.385 20.456 208.105 20.456C208.585 20.456 209.065 20.432 209.545 20.384V23.024C209.241 23.056 208.921 23.08 208.585 23.096C208.265 23.128 207.865 23.144 207.385 23.144ZM215.722 23.288C214.234 23.288 213.114 22.872 212.362 22.04C211.61 21.192 211.234 19.888 211.234 18.128V10.28H214.402V17.696C214.402 18.656 214.586 19.384 214.954 19.88C215.338 20.36 215.978 20.6 216.874 20.6C217.354 20.6 217.762 20.52 218.098 20.36C218.434 20.2 218.714 19.992 218.938 19.736C219.162 19.464 219.322 19.152 219.418 18.8C219.53 18.448 219.586 18.08 219.586 17.696V10.28H222.754V23H219.826V21.128C219.522 21.704 219.034 22.208 218.362 22.64C217.706 23.072 216.826 23.288 215.722 23.288ZM229.948 23.288C228.284 23.288 226.964 22.752 225.988 21.68C225.028 20.592 224.548 18.952 224.548 16.76V16.28C224.548 14.232 225.036 12.672 226.012 11.6C226.988 10.528 228.3 9.992 229.948 9.992C230.812 9.992 231.572 10.184 232.228 10.568C232.9 10.936 233.444 11.424 233.86 12.032V6.2H237.028V23H234.076V21.128C233.756 21.704 233.252 22.208 232.564 22.64C231.876 23.072 231.004 23.288 229.948 23.288ZM230.692 20.6C231.636 20.6 232.396 20.328 232.972 19.784C233.564 19.224 233.86 18.376 233.86 17.24V15.8C233.86 14.76 233.556 13.984 232.948 13.472C232.356 12.944 231.604 12.68 230.692 12.68C229.828 12.68 229.124 12.984 228.58 13.592C228.036 14.184 227.764 15.08 227.764 16.28V16.76C227.764 18.056 228.044 19.024 228.604 19.664C229.164 20.288 229.86 20.6 230.692 20.6ZM239.673 10.28H242.841V23H239.673V10.28ZM241.257 9.08C240.697 9.08 240.233 8.904 239.865 8.552C239.513 8.184 239.337 7.72 239.337 7.16C239.337 6.6 239.513 6.144 239.865 5.792C240.233 5.424 240.697 5.24 241.257 5.24C241.817 5.24 242.273 5.424 242.625 5.792C242.993 6.144 243.177 6.6 243.177 7.16C243.177 7.72 242.993 8.184 242.625 8.552C242.273 8.904 241.817 9.08 241.257 9.08ZM251.253 23.288C250.389 23.288 249.565 23.16 248.781 22.904C248.013 22.632 247.341 22.224 246.765 21.68C246.189 21.136 245.733 20.456 245.397 19.64C245.061 18.824 244.893 17.864 244.893 16.76V16.28C244.893 15.24 245.061 14.328 245.397 13.544C245.733 12.76 246.189 12.104 246.765 11.576C247.341 11.048 248.013 10.656 248.781 10.4C249.565 10.128 250.389 9.992 251.253 9.992C252.117 9.992 252.933 10.128 253.701 10.4C254.469 10.656 255.141 11.048 255.717 11.576C256.309 12.104 256.773 12.76 257.109 13.544C257.445 14.328 257.613 15.24 257.613 16.28V16.76C257.613 17.848 257.445 18.8 257.109 19.616C256.773 20.432 256.309 21.112 255.717 21.656C255.141 22.2 254.469 22.608 253.701 22.88C252.933 23.152 252.117 23.288 251.253 23.288ZM251.253 20.6C252.149 20.6 252.893 20.28 253.485 19.64C254.093 19 254.397 18.04 254.397 16.76V16.28C254.397 15.112 254.093 14.224 253.485 13.616C252.893 12.992 252.149 12.68 251.253 12.68C250.341 12.68 249.589 12.992 248.997 13.616C248.405 14.224 248.109 15.112 248.109 16.28V16.76C248.109 18.056 248.405 19.024 248.997 19.664C249.589 20.288 250.341 20.6 251.253 20.6Z" fill="white"/>
<path d="M89.2273 52V43.2727H90.5682V47.0682H91.4545L94.5909 43.2727H96.3182L92.7955 47.4773L96.3636 52H94.6364L91.7727 48.3182H90.5682V52H89.2273ZM100.687 52.1818C99.8992 52.1818 99.2079 51.9943 98.6132 51.6193C98.0223 51.2443 97.5602 50.7197 97.2269 50.0455C96.8973 49.3712 96.7326 48.5833 96.7326 47.6818C96.7326 46.7727 96.8973 45.9792 97.2269 45.3011C97.5602 44.6231 98.0223 44.0966 98.6132 43.7216C99.2079 43.3466 99.8992 43.1591 100.687 43.1591C101.475 43.1591 102.164 43.3466 102.755 43.7216C103.35 44.0966 103.812 44.6231 104.142 45.3011C104.475 45.9792 104.642 46.7727 104.642 47.6818C104.642 48.5833 104.475 49.3712 104.142 50.0455C103.812 50.7197 103.35 51.2443 102.755 51.6193C102.164 51.9943 101.475 52.1818 100.687 52.1818ZM100.687 50.9773C101.286 50.9773 101.778 50.8239 102.164 50.517C102.551 50.2102 102.837 49.8068 103.022 49.3068C103.208 48.8068 103.301 48.2652 103.301 47.6818C103.301 47.0985 103.208 46.5549 103.022 46.0511C102.837 45.5473 102.551 45.1402 102.164 44.8295C101.778 44.5189 101.286 44.3636 100.687 44.3636C100.089 44.3636 99.5962 44.5189 99.2098 44.8295C98.8235 45.1402 98.5375 45.5473 98.3519 46.0511C98.1663 46.5549 98.0735 47.0985 98.0735 47.6818C98.0735 48.2652 98.1663 48.8068 98.3519 49.3068C98.5375 49.8068 98.8235 50.2102 99.2098 50.517C99.5962 50.8239 100.089 50.9773 100.687 50.9773ZM112.209 47.0227V48.2727H107.391V47.0227H112.209ZM107.709 43.2727V52H106.369V43.2727H107.709ZM113.232 43.2727V52H111.891V43.2727H113.232ZM118.906 52.1818C118.088 52.1818 117.384 51.9886 116.793 51.6023C116.202 51.2159 115.747 50.6837 115.429 50.0057C115.111 49.3277 114.952 48.553 114.952 47.6818C114.952 46.7955 115.115 46.0133 115.441 45.3352C115.77 44.6534 116.228 44.1212 116.816 43.7386C117.406 43.3523 118.096 43.1591 118.884 43.1591C119.497 43.1591 120.05 43.2727 120.543 43.5C121.035 43.7273 121.439 44.0455 121.753 44.4545C122.067 44.8636 122.263 45.3409 122.338 45.8864H120.997C120.895 45.4886 120.668 45.1364 120.316 44.8295C119.967 44.5189 119.497 44.3636 118.906 44.3636C118.384 44.3636 117.925 44.5 117.531 44.7727C117.141 45.0417 116.836 45.4223 116.617 45.9148C116.401 46.4034 116.293 46.9773 116.293 47.6364C116.293 48.3106 116.399 48.8977 116.611 49.3977C116.827 49.8977 117.13 50.286 117.52 50.5625C117.914 50.839 118.376 50.9773 118.906 50.9773C119.255 50.9773 119.571 50.9167 119.855 50.7955C120.139 50.6742 120.38 50.5 120.577 50.2727C120.774 50.0455 120.914 49.7727 120.997 49.4545H122.338C122.263 49.9697 122.075 50.4337 121.776 50.8466C121.48 51.2557 121.088 51.5814 120.6 51.8239C120.115 52.0625 119.55 52.1818 118.906 52.1818ZM123.291 44.5227V43.2727H130.382V44.5227H127.518V52H126.177V44.5227H123.291ZM132.018 55.2727V43.2727H133.313V44.6591H133.472C133.571 44.5076 133.707 44.3144 133.882 44.0795C134.06 43.8409 134.313 43.6288 134.643 43.4432C134.976 43.2538 135.427 43.1591 135.995 43.1591C136.73 43.1591 137.378 43.3428 137.938 43.7102C138.499 44.0777 138.936 44.5985 139.251 45.2727C139.565 45.947 139.722 46.7424 139.722 47.6591C139.722 48.5833 139.565 49.3845 139.251 50.0625C138.936 50.7367 138.501 51.2595 137.944 51.6307C137.387 51.9981 136.745 52.1818 136.018 52.1818C135.457 52.1818 135.008 52.089 134.671 51.9034C134.334 51.714 134.075 51.5 133.893 51.2614C133.711 51.0189 133.571 50.8182 133.472 50.6591H133.359V55.2727H132.018ZM133.336 47.6364C133.336 48.2955 133.433 48.8769 133.626 49.3807C133.819 49.8807 134.101 50.2727 134.472 50.5568C134.844 50.8371 135.298 50.9773 135.836 50.9773C136.397 50.9773 136.864 50.8295 137.239 50.5341C137.618 50.2348 137.902 49.8333 138.092 49.3295C138.285 48.822 138.382 48.2576 138.382 47.6364C138.382 47.0227 138.287 46.4697 138.097 45.9773C137.912 45.4811 137.63 45.089 137.251 44.8011C136.876 44.5095 136.404 44.3636 135.836 44.3636C135.291 44.3636 134.832 44.5019 134.461 44.7784C134.09 45.0511 133.81 45.4337 133.62 45.9261C133.431 46.4148 133.336 46.9848 133.336 47.6364ZM141.999 55.2727C141.772 55.2727 141.569 55.2538 141.391 55.2159C141.213 55.1818 141.09 55.1477 141.022 55.1136L141.363 53.9318C141.688 54.0152 141.976 54.0455 142.226 54.0227C142.476 54 142.698 53.8883 142.891 53.6875C143.088 53.4905 143.268 53.1705 143.431 52.7273L143.681 52.0455L140.454 43.2727H141.908L144.317 50.2273H144.408L146.817 43.2727H148.272L144.567 53.2727C144.401 53.7235 144.194 54.0966 143.948 54.392C143.702 54.6913 143.416 54.9129 143.09 55.0568C142.768 55.2008 142.404 55.2727 141.999 55.2727ZM149.722 52V43.2727H151.063V47.0682H151.949L155.085 43.2727H156.813L153.29 47.4773L156.858 52H155.131L152.267 48.3182H151.063V52H149.722ZM157.495 44.5227V43.2727H164.586V44.5227H161.723V52H160.382V44.5227H157.495ZM169.315 52.1818C168.527 52.1818 167.835 51.9943 167.241 51.6193C166.65 51.2443 166.188 50.7197 165.854 50.0455C165.525 49.3712 165.36 48.5833 165.36 47.6818C165.36 46.7727 165.525 45.9792 165.854 45.3011C166.188 44.6231 166.65 44.0966 167.241 43.7216C167.835 43.3466 168.527 43.1591 169.315 43.1591C170.102 43.1591 170.792 43.3466 171.383 43.7216C171.977 44.0966 172.44 44.6231 172.769 45.3011C173.102 45.9792 173.269 46.7727 173.269 47.6818C173.269 48.5833 173.102 49.3712 172.769 50.0455C172.44 50.7197 171.977 51.2443 171.383 51.6193C170.792 51.9943 170.102 52.1818 169.315 52.1818ZM169.315 50.9773C169.913 50.9773 170.406 50.8239 170.792 50.517C171.178 50.2102 171.464 49.8068 171.65 49.3068C171.835 48.8068 171.928 48.2652 171.928 47.6818C171.928 47.0985 171.835 46.5549 171.65 46.0511C171.464 45.5473 171.178 45.1402 170.792 44.8295C170.406 44.5189 169.913 44.3636 169.315 44.3636C168.716 44.3636 168.224 44.5189 167.837 44.8295C167.451 45.1402 167.165 45.5473 166.979 46.0511C166.794 46.5549 166.701 47.0985 166.701 47.6818C166.701 48.2652 166.794 48.8068 166.979 49.3068C167.165 49.8068 167.451 50.2102 167.837 50.517C168.224 50.8239 168.716 50.9773 169.315 50.9773ZM174.996 55.2727V43.2727H176.291V44.6591H176.451C176.549 44.5076 176.685 44.3144 176.86 44.0795C177.038 43.8409 177.291 43.6288 177.621 43.4432C177.954 43.2538 178.405 43.1591 178.973 43.1591C179.708 43.1591 180.356 43.3428 180.916 43.7102C181.477 44.0777 181.915 44.5985 182.229 45.2727C182.543 45.947 182.701 46.7424 182.701 47.6591C182.701 48.5833 182.543 49.3845 182.229 50.0625C181.915 50.7367 181.479 51.2595 180.922 51.6307C180.365 51.9981 179.723 52.1818 178.996 52.1818C178.435 52.1818 177.987 52.089 177.649 51.9034C177.312 51.714 177.053 51.5 176.871 51.2614C176.689 51.0189 176.549 50.8182 176.451 50.6591H176.337V55.2727H174.996ZM176.314 47.6364C176.314 48.2955 176.411 48.8769 176.604 49.3807C176.797 49.8807 177.079 50.2727 177.451 50.5568C177.822 50.8371 178.276 50.9773 178.814 50.9773C179.375 50.9773 179.843 50.8295 180.218 50.5341C180.596 50.2348 180.88 49.8333 181.07 49.3295C181.263 48.822 181.36 48.2576 181.36 47.6364C181.36 47.0227 181.265 46.4697 181.076 45.9773C180.89 45.4811 180.608 45.089 180.229 44.8011C179.854 44.5095 179.382 44.3636 178.814 44.3636C178.269 44.3636 177.81 44.5019 177.439 44.7784C177.068 45.0511 176.788 45.4337 176.598 45.9261C176.409 46.4148 176.314 46.9848 176.314 47.6364Z" fill="white"/>
<path d="M190.813 51.2614L192.08 43.5795H193.615L192.348 51.2614H190.813ZM188.24 48.1818L188.495 46.6534H196.177L195.921 48.1818H188.24ZM205.166 52.1761C204.318 52.1761 203.623 51.9848 203.081 51.6023C202.539 51.2159 202.163 50.6837 201.95 50.0057C201.738 49.3277 201.704 48.5511 201.848 47.6761C201.992 46.7898 202.286 46.0076 202.729 45.3295C203.176 44.6477 203.734 44.1155 204.405 43.733C205.079 43.3504 205.827 43.1591 206.649 43.1591C207.312 43.1591 207.882 43.2822 208.359 43.5284C208.837 43.7708 209.199 44.1117 209.445 44.5511C209.691 44.9905 209.797 45.5038 209.763 46.0909H208.109C208.083 45.6818 207.931 45.3295 207.655 45.0341C207.378 44.7386 206.971 44.5909 206.433 44.5909C205.96 44.5909 205.524 44.7159 205.127 44.9659C204.729 45.2121 204.394 45.5644 204.121 46.0227C203.848 46.4773 203.663 47.0152 203.564 47.6364C203.458 48.2727 203.464 48.822 203.581 49.2841C203.699 49.7462 203.914 50.1042 204.229 50.358C204.543 50.6117 204.939 50.7386 205.416 50.7386C205.742 50.7386 206.045 50.6799 206.325 50.5625C206.609 50.4413 206.859 50.2689 207.075 50.0455C207.295 49.822 207.466 49.553 207.587 49.2386H209.246C209.083 49.803 208.81 50.3068 208.428 50.75C208.049 51.1932 207.583 51.5417 207.03 51.7955C206.477 52.0492 205.856 52.1761 205.166 52.1761ZM210.277 52L211.731 43.2727H213.362L213.123 44.6932H213.231C213.496 44.2121 213.856 43.8371 214.311 43.5682C214.769 43.2955 215.288 43.1591 215.868 43.1591C216.443 43.1591 216.907 43.2955 217.26 43.5682C217.616 43.8409 217.849 44.2159 217.959 44.6932H218.049C218.33 44.2235 218.722 43.8504 219.226 43.5739C219.729 43.2973 220.296 43.1591 220.924 43.1591C221.709 43.1591 222.311 43.4091 222.731 43.9091C223.155 44.4053 223.284 45.1515 223.118 46.1477L222.14 52H220.436L221.39 46.3068C221.485 45.7121 221.394 45.2841 221.118 45.0227C220.841 44.7576 220.479 44.625 220.032 44.625C219.479 44.625 219.021 44.7955 218.657 45.1364C218.294 45.4735 218.07 45.9072 217.987 46.4375L217.049 52H215.362L216.334 46.1989C216.409 45.7216 216.322 45.3409 216.072 45.0568C215.826 44.7689 215.466 44.625 214.993 44.625C214.671 44.625 214.358 44.7102 214.055 44.8807C213.756 45.0511 213.5 45.286 213.288 45.5852C213.076 45.8845 212.938 46.2292 212.873 46.6193L211.976 52H210.277ZM231.734 45.4034L230.148 45.6761C230.114 45.4754 230.044 45.286 229.938 45.108C229.836 44.9299 229.679 44.786 229.467 44.6761C229.255 44.5625 228.972 44.5057 228.62 44.5057C228.131 44.5057 227.703 44.6174 227.336 44.8409C226.972 45.0644 226.764 45.3485 226.711 45.6932C226.662 45.9735 226.728 46.2008 226.91 46.375C227.092 46.5455 227.412 46.6875 227.87 46.8011L229.211 47.1193C229.984 47.3049 230.537 47.5947 230.87 47.9886C231.207 48.3788 231.325 48.8864 231.222 49.5114C231.135 50.0303 230.908 50.4905 230.541 50.892C230.177 51.2936 229.711 51.608 229.143 51.8352C228.575 52.0625 227.942 52.1761 227.245 52.1761C226.253 52.1761 225.48 51.9659 224.927 51.5455C224.374 51.125 224.09 50.5303 224.075 49.7614L225.756 49.5114C225.787 49.9394 225.94 50.2633 226.217 50.483C226.497 50.6989 226.885 50.8068 227.381 50.8068C227.95 50.8106 228.425 50.6913 228.808 50.4489C229.19 50.2064 229.408 49.9129 229.461 49.5682C229.506 49.2992 229.446 49.0758 229.279 48.8977C229.116 48.7197 228.828 48.5833 228.416 48.4886L227.006 48.1648C226.219 47.9792 225.662 47.6799 225.336 47.267C225.01 46.8542 224.9 46.3352 225.006 45.7102C225.09 45.1989 225.306 44.7538 225.654 44.375C226.006 43.9924 226.452 43.6951 226.989 43.483C227.527 43.267 228.122 43.1591 228.773 43.1591C229.724 43.1591 230.438 43.3636 230.916 43.7727C231.393 44.178 231.666 44.7216 231.734 45.4034Z" fill="#1BDF65"/>
<defs>
<linearGradient id="paint0_linear_301_34860" x1="-4.17232e-07" y1="13" x2="56" y2="13" gradientUnits="userSpaceOnUse">
<stop stop-color="#2858FF"/>
<stop offset="1" stop-color="#2EB4FF" stop-opacity="0"/>
</linearGradient>
<linearGradient id="paint1_linear_301_34860" x1="56" y1="43" x2="3.5882e-07" y2="43" gradientUnits="userSpaceOnUse">
<stop stop-color="#1BFF76"/>
<stop offset="1" stop-color="#24FF54" stop-opacity="0"/>
</linearGradient>
</defs>
</svg>
