<svg width="168" height="56" viewBox="0 0 168 56" fill="none" xmlns="http://www.w3.org/2000/svg">
<g clip-path="url(#clip0_1_22966)">
<path d="M31.5 15.75C31.5 24.4486 24.4486 31.5 15.75 31.5C7.05152 31.5 0 24.4486 0 15.75C0 7.05152 7.05152 0 15.75 0C24.4486 0 31.5 7.05152 31.5 15.75Z" fill="#F10D30"/>
<path d="M15.7499 52.5C7.04344 52.5 0 53.0731 0 53.6456V54.855C0 55.4274 7.04344 56 15.7499 56C24.4563 56 31.4998 55.4274 31.4998 54.855V53.6456C31.5487 53.0731 24.4563 52.5 15.7499 52.5Z" fill="#F10D30"/>
<path d="M0 42.875V41.125C0 38.2254 7.05152 35.875 15.75 35.875C24.4486 35.875 31.5 38.2254 31.5 41.125V42.875C31.5 45.7746 24.4486 48.125 15.75 48.125C7.05152 48.125 0 45.7746 0 42.875Z" fill="#F10D30"/>
<path d="M85.9145 35.4387C87.9382 37.3663 90.5044 38.3549 93.6138 38.3549C94.4527 38.3549 97.6607 38.2067 99.8816 36.9215L102.942 41.6664C102.942 41.6664 99.5361 44.4346 93.2683 44.4346C88.2836 44.4346 84.1381 42.8034 81.0287 39.8377C77.7712 36.7239 76.1425 32.7698 76.1425 27.9753C76.1425 23.1317 77.7712 19.1775 80.9791 16.113C84.0885 13.1969 88.2341 11.5164 93.2683 11.5164C99.5361 11.5164 102.942 14.2842 102.942 14.2842L99.8816 19.0291C97.3152 17.5464 93.367 17.5959 93.367 17.5959C90.4059 17.5959 87.8887 18.5843 85.816 20.5614C83.8418 22.4891 82.8548 24.9604 82.8548 27.9753C82.8548 30.9904 83.8418 33.4617 85.9145 35.4387Z" fill="#10385C"/>
<path d="M108.517 43.8415H115.032V17.9912H128.556V43.8415H135.021V12.1589H108.517V43.8415Z" fill="#10385C"/>
<path fill-rule="evenodd" clip-rule="evenodd" d="M68.3837 25.949C66.2615 24.0212 63.3496 23.0328 59.6482 23.0328H52.8374V17.9912H69.3707V12.1589H46.3225V43.8415H59.6482C63.3496 43.8415 66.2615 42.9021 68.4332 40.9745C70.5554 38.9975 71.6411 36.5262 71.6411 33.4617C71.6411 30.4467 70.5554 27.926 68.3837 25.949ZM63.547 36.8721C62.5109 37.663 61.0794 38.1078 59.1547 38.1078H52.8374V28.519H59.1547C61.0298 28.519 62.4613 28.9639 63.4979 29.8042C64.534 30.6444 65.0771 31.8306 65.0771 33.3629C65.0771 34.8952 64.534 36.0813 63.547 36.8721Z" fill="#10385C"/>
<path fill-rule="evenodd" clip-rule="evenodd" d="M156.003 23.0328C159.704 23.0328 162.616 24.0212 164.739 25.949C166.91 27.926 167.996 30.4467 167.996 33.4617C167.996 36.5262 166.91 38.9975 164.788 40.9745C162.616 42.9021 159.704 43.8415 156.003 43.8415H142.677V12.1589H165.726V17.9912H149.192V23.0328H156.003ZM155.509 38.1078C157.434 38.1078 158.866 37.663 159.902 36.8721C160.889 36.0813 161.432 34.8952 161.432 33.3629C161.432 31.8306 160.889 30.6444 159.853 29.8042C158.816 28.9639 157.385 28.519 155.509 28.519H149.192V38.1078H155.509Z" fill="#10385C"/>
</g>
<defs>
<clipPath id="clip0_1_22966">
<rect width="168" height="56" fill="white"/>
</clipPath>
</defs>
</svg>
