<svg width="40" height="40" viewBox="0 0 40 40" fill="none" xmlns="http://www.w3.org/2000/svg">
<g opacity="0.3">
<path d="M33.3331 3.33334L27.4331 4.4C24.445 5.19816 21.7274 6.78727 19.5665 9C16.1165 12.6 12.2665 20.3167 10.7331 23.5333C10.5366 23.9583 10.4776 24.4339 10.5643 24.894C10.6509 25.354 10.8789 25.7756 11.2165 26.1L14.6498 29.4333C14.9836 29.7584 15.4121 29.969 15.8734 30.0349C16.3346 30.1008 16.8049 30.0186 17.2165 29.8C22.1931 27.2844 26.8629 24.2029 31.1331 20.6167C33.3859 18.3356 34.9064 15.4339 35.4998 12.2833L36.5665 6.66667C36.6527 6.21912 36.6297 5.75737 36.4994 5.3206C36.3691 4.88383 36.1354 4.48494 35.8181 4.15778C35.5007 3.83062 35.1091 3.58485 34.6765 3.44133C34.2439 3.2978 33.7831 3.26075 33.3331 3.33334ZM29.3998 15.3167C28.9454 15.7968 28.3586 16.1311 27.7138 16.2769C27.069 16.4227 26.3955 16.3735 25.7787 16.1355C25.162 15.8976 24.6299 15.4816 24.2502 14.9406C23.8704 14.3995 23.6601 13.7577 23.646 13.0968C23.6319 12.4359 23.8146 11.7857 24.1709 11.2289C24.5272 10.6721 25.0411 10.2338 25.6471 9.96978C26.2531 9.70572 26.924 9.62782 27.5744 9.74598C28.2248 9.86413 28.8254 10.173 29.2998 10.6333C29.9291 11.2439 30.2924 12.0779 30.3111 12.9545C30.3299 13.8311 30.0024 14.6798 29.3998 15.3167Z" fill="#0DCC58"/>
</g>
<path d="M15.6006 14.4333L10.9673 23.1167L3.33398 22.9333C3.33398 22.9333 9.71732 13.1833 15.6006 14.4333ZM26.8006 24L18.4673 29.1L18.984 36.6667C18.984 36.6667 28.334 29.8 26.8006 24ZM26.9673 9.71667C26.308 9.71667 25.6636 9.91217 25.1154 10.2784C24.5673 10.6447 24.14 11.1653 23.8877 11.7744C23.6354 12.3835 23.5694 13.0537 23.698 13.7003C23.8267 14.3469 24.1441 14.9409 24.6103 15.407C25.0765 15.8732 25.6704 16.1907 26.317 16.3193C26.9636 16.4479 27.6338 16.3819 28.2429 16.1296C28.852 15.8773 29.3726 15.4501 29.7389 14.9019C30.1052 14.3537 30.3007 13.7093 30.3007 13.05C30.3007 12.166 29.9495 11.3181 29.3243 10.693C28.6992 10.0679 27.8514 9.71667 26.9673 9.71667Z" fill="#0DCC58"/>
</svg>
