<svg width="150" height="24" viewBox="0 0 150 24" fill="none" xmlns="http://www.w3.org/2000/svg">
    <path d="M0 5.57143C0 2.49441 2.68629 0 6 0H24V11.1429H6C2.68629 11.1429 0 8.64844 0 5.57143Z" fill="url(#paint0_linear_537_3166)"/>
    <path d="M0 12.8571H18C21.3137 12.8571 24 15.3516 24 18.4286C24 21.5056 21.3137 24 18 24H0V12.8571Z" fill="url(#paint1_linear_537_3166)"/>
    <path d="M40.4 18.192C39.7067 18.192 39.12 18.1173 38.64 17.968C38.1707 17.8187 37.7867 17.6213 37.488 17.376C37.2 17.1307 36.9813 16.848 36.832 16.528C36.6827 16.208 36.592 15.872 36.56 15.52H38.672C38.7253 15.7973 38.8907 16.0267 39.168 16.208C39.4453 16.3787 39.856 16.464 40.4 16.464C41.0187 16.464 41.4613 16.3787 41.728 16.208C41.9947 16.0373 42.128 15.8187 42.128 15.552C42.128 15.4133 42.096 15.296 42.032 15.2C41.968 15.0933 41.856 14.9973 41.696 14.912C41.5467 14.8267 41.3387 14.752 41.072 14.688C40.8053 14.624 40.4693 14.56 40.064 14.496C39.6053 14.432 39.1787 14.3413 38.784 14.224C38.3893 14.1067 38.0427 13.9467 37.744 13.744C37.456 13.5413 37.2267 13.2907 37.056 12.992C36.8853 12.6827 36.8 12.3093 36.8 11.872C36.8 11.52 36.88 11.1893 37.04 10.88C37.2 10.5707 37.4347 10.304 37.744 10.08C38.0533 9.84533 38.432 9.664 38.88 9.536C39.328 9.39733 39.8347 9.328 40.4 9.328C41.008 9.328 41.5253 9.40267 41.952 9.552C42.3893 9.70133 42.7467 9.904 43.024 10.16C43.3013 10.4053 43.5093 10.688 43.648 11.008C43.7867 11.328 43.8773 11.6587 43.92 12H41.808C41.7227 11.6907 41.5573 11.456 41.312 11.296C41.0667 11.136 40.7627 11.056 40.4 11.056C39.8667 11.056 39.4827 11.1413 39.248 11.312C39.024 11.472 38.912 11.6747 38.912 11.92C38.912 12.048 38.9387 12.16 38.992 12.256C39.0453 12.352 39.1413 12.4373 39.28 12.512C39.4293 12.5867 39.6267 12.656 39.872 12.72C40.128 12.7733 40.448 12.8267 40.832 12.88C41.312 12.944 41.7547 13.04 42.16 13.168C42.576 13.2853 42.9387 13.4453 43.248 13.648C43.5573 13.8507 43.7973 14.1067 43.968 14.416C44.1493 14.7253 44.24 15.0933 44.24 15.52C44.24 15.904 44.16 16.2613 44 16.592C43.84 16.912 43.6 17.1947 43.28 17.44C42.96 17.6747 42.56 17.8613 42.08 18C41.6 18.128 41.04 18.192 40.4 18.192ZM47.9809 18.192C47.5222 18.192 47.1169 18.128 46.7649 18C46.4129 17.8613 46.1142 17.6747 45.8689 17.44C45.6235 17.1947 45.4369 16.912 45.3089 16.592C45.1809 16.2613 45.1169 15.904 45.1169 15.52C45.1169 13.8133 46.1302 12.96 48.1569 12.96H50.6849V12.56C50.6849 12.0053 50.5569 11.616 50.3009 11.392C50.0555 11.168 49.6609 11.056 49.1169 11.056C48.6369 11.056 48.2902 11.1413 48.0769 11.312C47.8635 11.472 47.7409 11.6747 47.7089 11.92H45.5969C45.6182 11.5573 45.7089 11.216 45.8689 10.896C46.0395 10.576 46.2742 10.304 46.5729 10.08C46.8822 9.84533 47.2555 9.664 47.6929 9.536C48.1302 9.39733 48.6315 9.328 49.1969 9.328C49.7409 9.328 50.2315 9.38667 50.6689 9.504C51.1169 9.62133 51.4955 9.81333 51.8049 10.08C52.1249 10.336 52.3702 10.672 52.5409 11.088C52.7115 11.504 52.7969 12.0053 52.7969 12.592V15.84C52.7969 16.288 52.8022 16.6827 52.8129 17.024C52.8342 17.3547 52.8662 17.68 52.9089 18H50.9409C50.8982 17.7653 50.8715 17.5893 50.8609 17.472C50.8609 17.344 50.8609 17.1573 50.8609 16.912C50.6262 17.2533 50.2689 17.552 49.7889 17.808C49.3195 18.064 48.7169 18.192 47.9809 18.192ZM48.6369 16.56C48.8929 16.56 49.1435 16.528 49.3889 16.464C49.6342 16.3893 49.8529 16.2827 50.0449 16.144C50.2369 15.9947 50.3915 15.808 50.5089 15.584C50.6262 15.36 50.6849 15.0987 50.6849 14.8V14.4H48.5569C48.1515 14.4 47.8315 14.496 47.5969 14.688C47.3729 14.8693 47.2609 15.12 47.2609 15.44C47.2609 15.7813 47.3782 16.0533 47.6129 16.256C47.8475 16.4587 48.1889 16.56 48.6369 16.56ZM54.32 9.52H56.272V10.784C56.368 10.592 56.4907 10.4107 56.64 10.24C56.8 10.0693 56.9813 9.91467 57.184 9.776C57.3973 9.63733 57.6267 9.53067 57.872 9.456C58.128 9.37067 58.4 9.328 58.688 9.328C59.3707 9.328 59.904 9.46667 60.288 9.744C60.6827 10.0213 60.96 10.3893 61.12 10.848C61.3547 10.4 61.6907 10.0373 62.128 9.76C62.576 9.472 63.104 9.328 63.712 9.328C64.6187 9.328 65.3067 9.58933 65.776 10.112C66.2453 10.624 66.48 11.4133 66.48 12.48V18H64.368V12.96C64.368 12.288 64.256 11.8133 64.032 11.536C63.8187 11.2587 63.472 11.12 62.992 11.12C62.5653 11.12 62.2027 11.2853 61.904 11.616C61.6053 11.936 61.456 12.384 61.456 12.96V18H59.344V12.96C59.344 12.288 59.232 11.8133 59.008 11.536C58.7947 11.2587 58.448 11.12 57.968 11.12C57.5413 11.12 57.1787 11.2853 56.88 11.616C56.5813 11.936 56.432 12.384 56.432 12.96V18H54.32V9.52ZM71.44 18.192C70.7467 18.192 70.16 18.1173 69.68 17.968C69.2107 17.8187 68.8267 17.6213 68.528 17.376C68.24 17.1307 68.0213 16.848 67.872 16.528C67.7227 16.208 67.632 15.872 67.6 15.52H69.712C69.7653 15.7973 69.9307 16.0267 70.208 16.208C70.4853 16.3787 70.896 16.464 71.44 16.464C72.0587 16.464 72.5013 16.3787 72.768 16.208C73.0347 16.0373 73.168 15.8187 73.168 15.552C73.168 15.4133 73.136 15.296 73.072 15.2C73.008 15.0933 72.896 14.9973 72.736 14.912C72.5867 14.8267 72.3787 14.752 72.112 14.688C71.8453 14.624 71.5093 14.56 71.104 14.496C70.6453 14.432 70.2187 14.3413 69.824 14.224C69.4293 14.1067 69.0827 13.9467 68.784 13.744C68.496 13.5413 68.2667 13.2907 68.096 12.992C67.9253 12.6827 67.84 12.3093 67.84 11.872C67.84 11.52 67.92 11.1893 68.08 10.88C68.24 10.5707 68.4747 10.304 68.784 10.08C69.0933 9.84533 69.472 9.664 69.92 9.536C70.368 9.39733 70.8747 9.328 71.44 9.328C72.048 9.328 72.5653 9.40267 72.992 9.552C73.4293 9.70133 73.7867 9.904 74.064 10.16C74.3413 10.4053 74.5493 10.688 74.688 11.008C74.8267 11.328 74.9173 11.6587 74.96 12H72.848C72.7627 11.6907 72.5973 11.456 72.352 11.296C72.1067 11.136 71.8027 11.056 71.44 11.056C70.9067 11.056 70.5227 11.1413 70.288 11.312C70.064 11.472 69.952 11.6747 69.952 11.92C69.952 12.048 69.9787 12.16 70.032 12.256C70.0853 12.352 70.1813 12.4373 70.32 12.512C70.4693 12.5867 70.6667 12.656 70.912 12.72C71.168 12.7733 71.488 12.8267 71.872 12.88C72.352 12.944 72.7947 13.04 73.2 13.168C73.616 13.2853 73.9787 13.4453 74.288 13.648C74.5973 13.8507 74.8373 14.1067 75.008 14.416C75.1893 14.7253 75.28 15.0933 75.28 15.52C75.28 15.904 75.2 16.2613 75.04 16.592C74.88 16.912 74.64 17.1947 74.32 17.44C74 17.6747 73.6 17.8613 73.12 18C72.64 18.128 72.08 18.192 71.44 18.192ZM79.0209 18.192C78.5622 18.192 78.1569 18.128 77.8049 18C77.4529 17.8613 77.1542 17.6747 76.9089 17.44C76.6635 17.1947 76.4769 16.912 76.3489 16.592C76.2209 16.2613 76.1569 15.904 76.1569 15.52C76.1569 13.8133 77.1702 12.96 79.1969 12.96H81.7249V12.56C81.7249 12.0053 81.5969 11.616 81.3409 11.392C81.0955 11.168 80.7009 11.056 80.1569 11.056C79.6769 11.056 79.3302 11.1413 79.1169 11.312C78.9035 11.472 78.7809 11.6747 78.7489 11.92H76.6369C76.6582 11.5573 76.7489 11.216 76.9089 10.896C77.0795 10.576 77.3142 10.304 77.6129 10.08C77.9222 9.84533 78.2955 9.664 78.7329 9.536C79.1702 9.39733 79.6715 9.328 80.2369 9.328C80.7809 9.328 81.2715 9.38667 81.7089 9.504C82.1569 9.62133 82.5355 9.81333 82.8449 10.08C83.1649 10.336 83.4102 10.672 83.5809 11.088C83.7515 11.504 83.8369 12.0053 83.8369 12.592V15.84C83.8369 16.288 83.8422 16.6827 83.8529 17.024C83.8742 17.3547 83.9062 17.68 83.9489 18H81.9809C81.9382 17.7653 81.9115 17.5893 81.9009 17.472C81.9009 17.344 81.9009 17.1573 81.9009 16.912C81.6662 17.2533 81.3089 17.552 80.8289 17.808C80.3595 18.064 79.7569 18.192 79.0209 18.192ZM79.6769 16.56C79.9329 16.56 80.1835 16.528 80.4289 16.464C80.6742 16.3893 80.8929 16.2827 81.0849 16.144C81.2769 15.9947 81.4315 15.808 81.5489 15.584C81.6662 15.36 81.7249 15.0987 81.7249 14.8V14.4H79.5969C79.1915 14.4 78.8715 14.496 78.6369 14.688C78.4129 14.8693 78.3009 15.12 78.3009 15.44C78.3009 15.7813 78.4182 16.0533 78.6529 16.256C78.8875 16.4587 79.2289 16.56 79.6769 16.56ZM85.36 9.52H87.312V10.784C87.408 10.592 87.5307 10.4107 87.68 10.24C87.84 10.0693 88.0213 9.91467 88.224 9.776C88.4373 9.63733 88.6667 9.53067 88.912 9.456C89.168 9.37067 89.44 9.328 89.728 9.328C90.4107 9.328 90.944 9.46667 91.328 9.744C91.7227 10.0213 92 10.3893 92.16 10.848C92.3947 10.4 92.7307 10.0373 93.168 9.76C93.616 9.472 94.144 9.328 94.752 9.328C95.6587 9.328 96.3467 9.58933 96.816 10.112C97.2853 10.624 97.52 11.4133 97.52 12.48V18H95.408V12.96C95.408 12.288 95.296 11.8133 95.072 11.536C94.8587 11.2587 94.512 11.12 94.032 11.12C93.6053 11.12 93.2427 11.2853 92.944 11.616C92.6453 11.936 92.496 12.384 92.496 12.96V18H90.384V12.96C90.384 12.288 90.272 11.8133 90.048 11.536C89.8347 11.2587 89.488 11.12 89.008 11.12C88.5813 11.12 88.2187 11.2853 87.92 11.616C87.6213 11.936 87.472 12.384 87.472 12.96V18H85.36V9.52ZM100.56 18.192C100.187 18.192 99.8667 18.0587 99.6 17.792C99.3333 17.5253 99.2 17.2053 99.2 16.832C99.2 16.4373 99.3333 16.112 99.6 15.856C99.8667 15.6 100.187 15.472 100.56 15.472C100.933 15.472 101.253 15.6 101.52 15.856C101.787 16.112 101.92 16.4373 101.92 16.832C101.92 17.2053 101.787 17.5253 101.52 17.792C101.253 18.0587 100.933 18.192 100.56 18.192ZM107.113 18.192C106.42 18.192 105.833 18.1173 105.353 17.968C104.884 17.8187 104.5 17.6213 104.201 17.376C103.913 17.1307 103.694 16.848 103.545 16.528C103.396 16.208 103.305 15.872 103.273 15.52H105.385C105.438 15.7973 105.604 16.0267 105.881 16.208C106.158 16.3787 106.569 16.464 107.113 16.464C107.732 16.464 108.174 16.3787 108.441 16.208C108.708 16.0373 108.841 15.8187 108.841 15.552C108.841 15.4133 108.809 15.296 108.745 15.2C108.681 15.0933 108.569 14.9973 108.409 14.912C108.26 14.8267 108.052 14.752 107.785 14.688C107.518 14.624 107.182 14.56 106.777 14.496C106.318 14.432 105.892 14.3413 105.497 14.224C105.102 14.1067 104.756 13.9467 104.457 13.744C104.169 13.5413 103.94 13.2907 103.769 12.992C103.598 12.6827 103.513 12.3093 103.513 11.872C103.513 11.52 103.593 11.1893 103.753 10.88C103.913 10.5707 104.148 10.304 104.457 10.08C104.766 9.84533 105.145 9.664 105.593 9.536C106.041 9.39733 106.548 9.328 107.113 9.328C107.721 9.328 108.238 9.40267 108.665 9.552C109.102 9.70133 109.46 9.904 109.737 10.16C110.014 10.4053 110.222 10.688 110.361 11.008C110.5 11.328 110.59 11.6587 110.633 12H108.521C108.436 11.6907 108.27 11.456 108.025 11.296C107.78 11.136 107.476 11.056 107.113 11.056C106.58 11.056 106.196 11.1413 105.961 11.312C105.737 11.472 105.625 11.6747 105.625 11.92C105.625 12.048 105.652 12.16 105.705 12.256C105.758 12.352 105.854 12.4373 105.993 12.512C106.142 12.5867 106.34 12.656 106.585 12.72C106.841 12.7733 107.161 12.8267 107.545 12.88C108.025 12.944 108.468 13.04 108.873 13.168C109.289 13.2853 109.652 13.4453 109.961 13.648C110.27 13.8507 110.51 14.1067 110.681 14.416C110.862 14.7253 110.953 15.0933 110.953 15.52C110.953 15.904 110.873 16.2613 110.713 16.592C110.553 16.912 110.313 17.1947 109.993 17.44C109.673 17.6747 109.273 17.8613 108.793 18C108.313 18.128 107.753 18.192 107.113 18.192ZM115.59 18.096C114.587 18.096 113.857 17.8827 113.398 17.456C112.939 17.0187 112.71 16.2933 112.71 15.28V11.28H111.59V9.52H112.71V7.6H114.822V9.52H116.87V11.28H114.822V14.96C114.822 15.44 114.907 15.7867 115.078 16C115.259 16.2027 115.59 16.304 116.07 16.304C116.39 16.304 116.71 16.288 117.03 16.256V18.016C116.827 18.0373 116.614 18.0533 116.39 18.064C116.177 18.0853 115.91 18.096 115.59 18.096ZM121.148 18.192C120.156 18.192 119.41 17.9147 118.908 17.36C118.407 16.7947 118.156 15.9253 118.156 14.752V9.52H120.268V14.464C120.268 15.104 120.391 15.5893 120.636 15.92C120.892 16.24 121.319 16.4 121.916 16.4C122.236 16.4 122.508 16.3467 122.732 16.24C122.956 16.1333 123.143 15.9947 123.292 15.824C123.442 15.6427 123.548 15.4347 123.612 15.2C123.687 14.9653 123.724 14.72 123.724 14.464V9.52H125.836V18H123.884V16.752C123.682 17.136 123.356 17.472 122.908 17.76C122.471 18.048 121.884 18.192 121.148 18.192ZM130.632 18.192C129.523 18.192 128.643 17.8347 127.992 17.12C127.352 16.3947 127.032 15.3013 127.032 13.84V13.52C127.032 12.1547 127.357 11.1147 128.008 10.4C128.659 9.68533 129.533 9.328 130.632 9.328C131.208 9.328 131.715 9.456 132.152 9.712C132.6 9.95733 132.963 10.2827 133.24 10.688V6.8H135.352V18H133.384V16.752C133.171 17.136 132.835 17.472 132.376 17.76C131.917 18.048 131.336 18.192 130.632 18.192ZM131.128 16.4C131.757 16.4 132.264 16.2187 132.648 15.856C133.043 15.4827 133.24 14.9173 133.24 14.16V13.2C133.24 12.5067 133.037 11.9893 132.632 11.648C132.237 11.296 131.736 11.12 131.128 11.12C130.552 11.12 130.083 11.3227 129.72 11.728C129.357 12.1227 129.176 12.72 129.176 13.52V13.84C129.176 14.704 129.363 15.3493 129.736 15.776C130.109 16.192 130.573 16.4 131.128 16.4ZM137.116 9.52H139.228V18H137.116V9.52ZM138.172 8.72C137.798 8.72 137.489 8.60267 137.244 8.368C137.009 8.12267 136.892 7.81333 136.892 7.44C136.892 7.06667 137.009 6.76267 137.244 6.528C137.489 6.28267 137.798 6.16 138.172 6.16C138.545 6.16 138.849 6.28267 139.084 6.528C139.329 6.76267 139.452 7.06667 139.452 7.44C139.452 7.81333 139.329 8.12267 139.084 8.368C138.849 8.60267 138.545 8.72 138.172 8.72ZM144.835 18.192C144.259 18.192 143.71 18.1067 143.187 17.936C142.675 17.7547 142.227 17.4827 141.843 17.12C141.459 16.7573 141.155 16.304 140.931 15.76C140.707 15.216 140.595 14.576 140.595 13.84V13.52C140.595 12.8267 140.707 12.2187 140.931 11.696C141.155 11.1733 141.459 10.736 141.843 10.384C142.227 10.032 142.675 9.77067 143.187 9.6C143.71 9.41867 144.259 9.328 144.835 9.328C145.411 9.328 145.955 9.41867 146.467 9.6C146.979 9.77067 147.427 10.032 147.811 10.384C148.206 10.736 148.515 11.1733 148.739 11.696C148.963 12.2187 149.075 12.8267 149.075 13.52V13.84C149.075 14.5653 148.963 15.2 148.739 15.744C148.515 16.288 148.206 16.7413 147.811 17.104C147.427 17.4667 146.979 17.7387 146.467 17.92C145.955 18.1013 145.411 18.192 144.835 18.192ZM144.835 16.4C145.432 16.4 145.928 16.1867 146.323 15.76C146.728 15.3333 146.931 14.6933 146.931 13.84V13.52C146.931 12.7413 146.728 12.1493 146.323 11.744C145.928 11.328 145.432 11.12 144.835 11.12C144.227 11.12 143.726 11.328 143.331 11.744C142.936 12.1493 142.739 12.7413 142.739 13.52V13.84C142.739 14.704 142.936 15.3493 143.331 15.776C143.726 16.192 144.227 16.4 144.835 16.4Z" fill="white"/>
    <defs>
        <linearGradient id="paint0_linear_537_3166" x1="-1.78814e-07" y1="5.57143" x2="24" y2="5.57143" gradientUnits="userSpaceOnUse">
            <stop stop-color="#2858FF"/>
            <stop offset="1" stop-color="#2EB4FF" stop-opacity="0"/>
        </linearGradient>
        <linearGradient id="paint1_linear_537_3166" x1="24" y1="18.4286" x2="1.5378e-07" y2="18.4286" gradientUnits="userSpaceOnUse">
            <stop stop-color="#1BFF76"/>
            <stop offset="1" stop-color="#24FF54" stop-opacity="0"/>
        </linearGradient>
    </defs>
</svg>
