<svg width="26" height="26" viewBox="0 0 26 26" fill="none" xmlns="http://www.w3.org/2000/svg">
<rect width="26" height="26" rx="4" fill="#F9F9F9"/>
<path d="M13.4009 14.3217C14.2026 14.3217 14.8526 13.6717 14.8526 12.87C14.8526 12.0683 14.2026 11.4183 13.4009 11.4183C12.5992 11.4183 11.9492 12.0683 11.9492 12.87C11.9492 13.6717 12.5992 14.3217 13.4009 14.3217Z" fill="#A1A5B7"/>
<path d="M7.96253 14.3217C8.76426 14.3217 9.4142 13.6717 9.4142 12.87C9.4142 12.0683 8.76426 11.4183 7.96253 11.4183C7.1608 11.4183 6.51086 12.0683 6.51086 12.87C6.51086 13.6717 7.1608 14.3217 7.96253 14.3217Z" fill="#A1A5B7"/>
<path d="M18.8284 14.3217C19.6301 14.3217 20.28 13.6717 20.28 12.87C20.28 12.0683 19.6301 11.4183 18.8284 11.4183C18.0266 11.4183 17.3767 12.0683 17.3767 12.87C17.3767 13.6717 18.0266 14.3217 18.8284 14.3217Z" fill="#A1A5B7"/>
</svg>
