<svg width="22" height="22" viewBox="0 0 22 22" fill="none" xmlns="http://www.w3.org/2000/svg">
<path d="M20.1663 7.77332V8.19498H1.83301V7.77332C1.83301 6.97833 2.14881 6.21591 2.71096 5.65377C3.2731 5.09163 4.03552 4.77582 4.83051 4.77582H17.1688C17.9638 4.77582 18.7263 5.09163 19.2884 5.65377C19.8505 6.21591 20.1663 6.97833 20.1663 7.77332ZM20.1663 10.5233V15.3542C20.1651 15.7466 20.0867 16.1349 19.9354 16.497C19.7841 16.8591 19.5629 17.1879 19.2846 17.4645C19.0063 17.7412 18.6761 17.9603 18.3131 18.1094C17.9501 18.2584 17.5613 18.3345 17.1688 18.3333H4.83051C4.4373 18.3345 4.04773 18.2581 3.68411 18.1085C3.32049 17.9588 2.98997 17.7389 2.71151 17.4613C2.43304 17.1837 2.21211 16.8539 2.06135 16.4907C1.9106 16.1275 1.83301 15.7382 1.83301 15.345V10.5142L20.1663 10.5233ZM12.9155 15.675C12.9131 15.4934 12.8399 15.3199 12.7115 15.1915C12.5831 15.0631 12.4096 14.9899 12.228 14.9875H10.8622C10.6798 14.9875 10.505 15.0599 10.376 15.1888C10.2471 15.3178 10.1747 15.4926 10.1747 15.675C10.1747 15.8573 10.2471 16.0322 10.376 16.1611C10.505 16.2901 10.6798 16.3625 10.8622 16.3625H12.228C12.4112 16.3601 12.586 16.2856 12.7147 16.1552C12.8434 16.0248 12.9155 15.849 12.9155 15.6658V15.675ZM18.4155 15.675C18.4131 15.4934 18.3399 15.3199 18.2115 15.1915C18.0831 15.0631 17.9096 14.9899 17.728 14.9875H14.483C14.3007 14.9875 14.1258 15.0599 13.9969 15.1888C13.8679 15.3178 13.7955 15.4926 13.7955 15.675C13.7955 15.8573 13.8679 16.0322 13.9969 16.1611C14.1258 16.2901 14.3007 16.3625 14.483 16.3625H17.7372C17.9203 16.3601 18.0952 16.2856 18.2239 16.1552C18.3526 16.0248 18.4247 15.849 18.4247 15.6658L18.4155 15.675Z" fill="#0DCC58"/>
</svg>
