<svg width="22" height="22" viewBox="0 0 22 22" fill="none" xmlns="http://www.w3.org/2000/svg">
<path d="M13.0625 15.84C13.0625 15.4755 13.3703 15.18 13.75 15.18H17.4167C17.7964 15.18 18.1042 15.4755 18.1042 15.84C18.1042 16.2045 17.7964 16.5 17.4167 16.5H13.75C13.3703 16.5 13.0625 16.2045 13.0625 15.84Z" fill="#7E8299"/>
<path d="M10.0834 15.18C9.70368 15.18 9.39587 15.4755 9.39587 15.84C9.39587 16.2045 9.70368 16.5 10.0834 16.5H11C11.3797 16.5 11.6875 16.2045 11.6875 15.84C11.6875 15.4755 11.3797 15.18 11 15.18H10.0834Z" fill="#7E8299"/>
<path fill-rule="evenodd" clip-rule="evenodd" d="M4.58337 3.73999C2.6849 3.73999 1.14587 5.21745 1.14587 7.03999V15.84C1.14587 17.6625 2.68489 19.14 4.58337 19.14H17.4167C19.3152 19.14 20.8542 17.6625 20.8542 15.84V7.03999C20.8542 5.21745 19.3152 3.73999 17.4167 3.73999H4.58337ZM2.52087 7.03999C2.52087 5.94647 3.44429 5.05999 4.58337 5.05999H17.4167C18.5558 5.05999 19.4792 5.94647 19.4792 7.03999V8.13999H2.52087V7.03999ZM2.52087 9.45999V15.84C2.52087 16.9335 3.44429 17.82 4.58337 17.82H17.4167C18.5558 17.82 19.4792 16.9335 19.4792 15.84V9.45999H2.52087Z" fill="#7E8299"/>
</svg>
