<svg width="24" height="24" viewBox="0 0 24 24" fill="none" xmlns="http://www.w3.org/2000/svg">
<path d="M13.4104 12L17.0004 8.44C17.1914 8.24639 17.2976 7.98486 17.2957 7.71293C17.2938 7.441 17.184 7.18096 16.9904 6.99C16.7968 6.79904 16.5353 6.69282 16.2633 6.6947C15.9914 6.69657 15.7314 6.80639 15.5404 7L12.0004 10.59L8.46041 7.07C8.27304 6.88375 8.01959 6.77921 7.75541 6.77921C7.49122 6.77921 7.23777 6.88375 7.05041 7.07C6.95668 7.16296 6.88228 7.27357 6.83152 7.39542C6.78075 7.51728 6.75461 7.64799 6.75461 7.78C6.75461 7.91201 6.78075 8.04272 6.83152 8.16458C6.88228 8.28644 6.95668 8.39704 7.05041 8.49L10.5904 12L7.00041 15.56C6.80945 15.7536 6.70323 16.0151 6.7051 16.2871C6.70698 16.559 6.8168 16.819 7.01041 17.01C7.20402 17.201 7.46555 17.3072 7.73748 17.3053C8.00941 17.3034 8.26945 17.1936 8.46041 17L12.0004 13.41L15.5404 16.93C15.7278 17.1163 15.9812 17.2208 16.2454 17.2208C16.5096 17.2208 16.763 17.1163 16.9504 16.93C17.0441 16.837 17.1185 16.7264 17.1693 16.6046C17.2201 16.4827 17.2462 16.352 17.2462 16.22C17.2462 16.088 17.2201 15.9573 17.1693 15.8354C17.1185 15.7136 17.0441 15.603 16.9504 15.51L13.4104 12Z" fill="#7E8299"/>
</svg>
