<svg width="22" height="22" viewBox="0 0 22 22" fill="none" xmlns="http://www.w3.org/2000/svg">
<path d="M9.71634 14.0616V18.3975C9.71634 18.8667 9.52995 19.3167 9.19816 19.6485C8.86638 19.9803 8.41639 20.1666 7.94717 20.1666H3.61134C3.14128 20.1667 2.69034 19.9806 2.3571 19.649C2.02386 19.3175 1.83543 18.8675 1.83301 18.3975V14.0616C1.83543 13.5916 2.02386 13.1416 2.3571 12.8101C2.69034 12.4786 3.14128 12.2925 3.61134 12.2925H4.46384V14.0433C4.47561 14.2784 4.57736 14.4999 4.74801 14.6621C4.91866 14.8242 5.14513 14.9144 5.38051 14.9141H6.29717C6.53255 14.9144 6.75903 14.8242 6.92967 14.6621C7.10032 14.4999 7.20207 14.2784 7.21384 14.0433V12.2925H8.06634C8.5146 12.3227 8.93455 12.5224 9.24098 12.851C9.54741 13.1795 9.71736 13.6124 9.71634 14.0616ZM18.4613 12.2925H17.6088V14.0433C17.5971 14.2784 17.4953 14.4999 17.3247 14.6621C17.154 14.8242 16.9276 14.9144 16.6922 14.9141H15.858C15.6226 14.9144 15.3962 14.8242 15.2255 14.6621C15.0549 14.4999 14.9531 14.2784 14.9413 14.0433V12.2925H14.0888C13.6188 12.2925 13.1678 12.4786 12.8346 12.8101C12.5014 13.1416 12.3129 13.5916 12.3105 14.0616V18.3975C12.3117 18.6334 12.3598 18.8666 12.452 19.0838C12.5441 19.3009 12.6786 19.4975 12.8475 19.6621C13.0164 19.8268 13.2164 19.9562 13.4358 20.0428C13.6552 20.1294 13.8897 20.1715 14.1255 20.1666H18.4613C18.9314 20.1667 19.3823 19.9806 19.7156 19.649C20.0488 19.3175 20.2373 18.8675 20.2397 18.3975V14.0616C20.2373 13.5916 20.0488 13.1416 19.7156 12.8101C19.3823 12.4786 18.9314 12.2925 18.4613 12.2925ZM7.94717 1.83331H7.09467V3.54748C7.09467 3.79059 6.9981 4.02375 6.82619 4.19566C6.65428 4.36757 6.42112 4.46415 6.17801 4.46415H5.26134C5.01823 4.46415 4.78507 4.36757 4.61316 4.19566C4.44125 4.02375 4.34467 3.79059 4.34467 3.54748V1.83331H3.66634C3.18011 1.83331 2.7138 2.02647 2.36998 2.37028C2.02616 2.7141 1.83301 3.18042 1.83301 3.66665V7.90165C1.83543 8.3717 2.02386 8.82167 2.3571 9.1532C2.69034 9.48472 3.14128 9.67082 3.61134 9.67081H7.94717C8.41639 9.67081 8.86638 9.48442 9.19816 9.15264C9.52995 8.82085 9.71634 8.37086 9.71634 7.90165V3.56581C9.70675 3.10298 9.51613 2.66235 9.18538 2.33846C8.85463 2.01457 8.4101 1.83321 7.94717 1.83331ZM18.4613 1.83331H17.6088V3.54748C17.6088 3.79059 17.5123 4.02375 17.3404 4.19566C17.1684 4.36757 16.9353 4.46415 16.6922 4.46415H15.858C15.6149 4.46415 15.3817 4.36757 15.2098 4.19566C15.0379 4.02375 14.9413 3.79059 14.9413 3.54748V1.83331H14.0888C13.6188 1.83331 13.1678 2.01941 12.8346 2.35093C12.5014 2.68245 12.3129 3.13243 12.3105 3.60248V7.90165C12.3129 8.3717 12.5014 8.82167 12.8346 9.1532C13.1678 9.48472 13.6188 9.67082 14.0888 9.67081H18.4247C18.8947 9.67082 19.3457 9.48472 19.6789 9.1532C20.0122 8.82167 20.2006 8.3717 20.203 7.90165V3.56581C20.1913 3.10843 20.0038 2.67316 19.6794 2.3505C19.355 2.02783 18.9188 1.8426 18.4613 1.83331Z" fill="#0DCC58"/>
</svg>
