<svg width="24" height="24" viewBox="0 0 24 24" fill="none" xmlns="http://www.w3.org/2000/svg">
<path d="M20.6603 14.2C19.8345 12.9578 19.412 11.4911 19.4503 10V9.85001C19.448 8.27753 18.8613 6.76205 17.8043 5.59784C16.7472 4.43363 15.2953 3.70378 13.7303 3.55V2.38001C13.7303 2.18109 13.6513 1.99033 13.5107 1.84967C13.37 1.70902 13.1792 1.63 12.9803 1.63C12.7814 1.63 12.5907 1.70902 12.45 1.84967C12.3094 1.99033 12.2303 2.18109 12.2303 2.38001V3.59C11.6714 3.65488 11.1234 3.79272 10.6003 4C9.4531 4.47839 8.47679 5.2916 7.79888 6.33344C7.12097 7.37528 6.77297 8.59733 6.80033 9.84C6.81261 11.4228 6.3108 12.9668 5.37033 14.24L4.70033 15.16C4.38276 15.5857 4.19002 16.0915 4.14371 16.6206C4.09739 17.1497 4.19934 17.6813 4.43811 18.1558C4.67689 18.6302 5.04307 19.0288 5.49562 19.3068C5.94816 19.5849 6.4692 19.7314 7.00033 19.73H10.2803V20.06C10.3689 20.7065 10.6887 21.2991 11.1805 21.7281C11.6722 22.1571 12.3027 22.3934 12.9553 22.3934C13.6079 22.3934 14.2384 22.1571 14.7302 21.7281C15.222 21.2991 15.5417 20.7065 15.6303 20.06V19.73H19.0003C19.5221 19.7227 20.0324 19.5753 20.4777 19.3031C20.9229 19.0309 21.2868 18.644 21.5311 18.1829C21.7755 17.7218 21.8914 17.2034 21.8666 16.6822C21.8418 16.1609 21.6773 15.6559 21.3903 15.22L20.6603 14.2ZM14.1603 19.89C14.104 20.1627 13.9554 20.4076 13.7395 20.5834C13.5237 20.7593 13.2538 20.8553 12.9753 20.8553C12.6969 20.8553 12.427 20.7593 12.2111 20.5834C11.9953 20.4076 11.8466 20.1627 11.7903 19.89V19.73H14.1603V19.89ZM19.0003 18.23H7.00033C6.74759 18.2291 6.50003 18.1583 6.28503 18.0254C6.07003 17.8926 5.89597 17.7028 5.78211 17.4772C5.66826 17.2515 5.61904 16.9988 5.6399 16.7469C5.66077 16.495 5.7509 16.2538 5.90033 16.05L6.58033 15.13C7.72044 13.5775 8.32419 11.696 8.30033 9.77001C8.28725 8.84209 8.55152 7.9314 9.05928 7.15462C9.56703 6.37785 10.2951 5.77036 11.1503 5.41C11.7865 5.1565 12.4655 5.0275 13.1503 5.03C13.7853 5.02472 14.4151 5.14524 15.0033 5.3846C15.5915 5.62396 16.1265 5.97742 16.5774 6.4246C17.0283 6.87178 17.3862 7.40381 17.6304 7.99001C17.8746 8.57621 18.0004 9.20497 18.0003 9.84V10C17.9738 11.7755 18.4825 13.5178 19.4603 15L20.1403 16C20.2977 16.2403 20.378 16.5229 20.3703 16.81C20.3771 16.9941 20.3466 17.1776 20.2808 17.3496C20.2149 17.5217 20.1151 17.6787 19.9872 17.8112C19.8593 17.9438 19.706 18.0492 19.5364 18.1212C19.3669 18.1931 19.1845 18.2301 19.0003 18.23Z" fill="white"/>
</svg>
