<svg width="22" height="22" viewBox="0 0 22 22" fill="none" xmlns="http://www.w3.org/2000/svg">
<path d="M20.1027 4.5283L17.4718 1.89746C16.9867 1.4303 16.3395 1.16931 15.666 1.16931C14.9925 1.16931 14.3453 1.4303 13.8602 1.89746L11.9168 3.8683L3.30018 12.4483C3.23415 12.5194 3.18414 12.6038 3.15351 12.6958L1.26518 18.3791C1.20522 18.544 1.1712 18.7172 1.16434 18.8925C1.16434 18.8925 1.16434 18.8925 1.16434 18.9475C1.15481 19.2683 1.23411 19.5855 1.39351 19.8641C1.39351 19.8641 1.44851 19.9283 1.46684 19.965C1.53284 20.0785 1.61292 20.1832 1.70518 20.2766C1.87605 20.451 2.08002 20.5894 2.30512 20.6838C2.53021 20.7783 2.7719 20.8268 3.01601 20.8266C3.21875 20.8252 3.41993 20.7912 3.61184 20.7258L9.29518 18.8375C9.38765 18.8034 9.47196 18.7503 9.54268 18.6816L18.1318 10.0833L20.1027 8.1033C20.3457 7.86465 20.5377 7.57906 20.6669 7.26388C20.7962 6.94871 20.8599 6.61055 20.8543 6.26996C20.8382 5.6141 20.5688 4.98994 20.1027 4.5283ZM9.06601 17.2333L6.91184 15.0883L4.75768 12.9341L12.366 5.33496L16.6743 9.63413L9.06601 17.2333ZM3.16268 19.4516H2.98851C2.90319 19.4456 2.82097 19.4171 2.75018 19.3691C2.66355 19.2838 2.61134 19.1696 2.60351 19.0483C2.59536 18.9905 2.59536 18.9319 2.60351 18.8741L2.75018 18.1591L3.84101 19.25L3.16268 19.4516ZM5.29851 18.7458L3.25434 16.7016L4.08851 14.2083L5.92184 16.0416L7.75518 17.875L5.29851 18.7458ZM19.131 7.1683L17.646 8.66246L13.3377 4.35413L14.8318 2.86913C15.0534 2.64858 15.3534 2.52476 15.666 2.52476C15.9787 2.52476 16.2786 2.64858 16.5002 2.86913L19.131 5.49996C19.3516 5.72156 19.4754 6.02148 19.4754 6.33413C19.4754 6.64677 19.3516 6.9467 19.131 7.1683Z" fill="#7E8299"/>
</svg>
