<svg width="22" height="22" viewBox="0 0 22 22" fill="none" xmlns="http://www.w3.org/2000/svg">
<path d="M11.0002 2.42909C12.6953 2.42909 14.3524 2.93176 15.7619 3.87353C17.1713 4.81531 18.2699 6.15389 18.9186 7.72C19.5673 9.28612 19.737 11.0094 19.4063 12.672C19.0756 14.3346 18.2593 15.8618 17.0607 17.0604C15.862 18.2591 14.3348 19.0754 12.6723 19.4061C11.0097 19.7368 9.28637 19.567 7.72025 18.9183C6.15414 18.2696 4.81556 17.1711 3.87378 15.7616C2.932 14.3522 2.42933 12.6951 2.42933 10.9999C2.42933 8.72679 3.33233 6.54677 4.93967 4.93942C6.54702 3.33208 8.72704 2.42909 11.0002 2.42909ZM6.71933 11.8524H10.1477V15.2808C10.1477 15.5068 10.2375 15.7237 10.3974 15.8836C10.5572 16.0434 10.7741 16.1333 11.0002 16.1333C11.2263 16.1333 11.4431 16.0434 11.603 15.8836C11.7629 15.7237 11.8527 15.5068 11.8527 15.2808V11.8524H15.281C15.5071 11.8524 15.7239 11.7626 15.8838 11.6027C16.0437 11.4429 16.1335 11.226 16.1335 10.9999C16.1335 10.7738 16.0437 10.557 15.8838 10.3971C15.7239 10.2372 15.5071 10.1474 15.281 10.1474H11.8527V6.71908C11.8527 6.49299 11.7629 6.27615 11.603 6.11628C11.4431 5.9564 11.2263 5.86659 11.0002 5.86659C10.7741 5.86659 10.5572 5.9564 10.3974 6.11628C10.2375 6.27615 10.1477 6.49299 10.1477 6.71908V10.1474H6.71933C6.49324 10.1474 6.2764 10.2372 6.11653 10.3971C5.95665 10.557 5.86683 10.7738 5.86683 10.9999C5.86683 11.226 5.95665 11.4429 6.11653 11.6027C6.2764 11.7626 6.49324 11.8524 6.71933 11.8524ZM11.0002 1.14575C9.0512 1.14575 7.146 1.72369 5.52549 2.80648C3.90498 3.88927 2.64194 5.42828 1.8961 7.22889C1.15027 9.02951 0.95512 11.0108 1.33535 12.9224C1.71557 14.8339 2.65409 16.5897 4.03222 17.9679C5.41035 19.346 7.16619 20.2845 9.07771 20.6647C10.9892 21.045 12.9706 20.8498 14.7712 20.104C16.5718 19.3581 18.1108 18.0951 19.1936 16.4746C20.2764 14.8541 20.8543 12.9489 20.8543 10.9999C20.8519 8.38718 19.8129 5.88214 17.9654 4.03465C16.1179 2.18716 13.6129 1.14818 11.0002 1.14575Z" fill="#7E8299"/>
</svg>
