<svg width="24" height="24" viewBox="0 0 24 24" fill="none" xmlns="http://www.w3.org/2000/svg">
<path d="M12 22.75C9.87386 22.75 7.79545 22.1195 6.02762 20.9383C4.2598 19.7571 2.88194 18.0782 2.0683 16.1139C1.25466 14.1495 1.04177 11.9881 1.45656 9.90278C1.87135 7.81749 2.89519 5.90202 4.39861 4.39861C5.90202 2.89519 7.81749 1.87135 9.90278 1.45656C11.9881 1.04177 14.1495 1.25466 16.1139 2.0683C18.0782 2.88194 19.7571 4.2598 20.9383 6.02762C22.1195 7.79545 22.75 9.87386 22.75 12C22.7474 14.8503 21.6139 17.583 19.5985 19.5985C17.583 21.6139 14.8503 22.7474 12 22.75ZM12 2.75C10.1705 2.75 8.38213 3.29251 6.86098 4.30891C5.33983 5.32531 4.15423 6.76997 3.45412 8.46018C2.75401 10.1504 2.57083 12.0103 2.92774 13.8046C3.28465 15.5989 4.16563 17.2471 5.45927 18.5407C6.7529 19.8344 8.40109 20.7154 10.1954 21.0723C11.9897 21.4292 13.8496 21.246 15.5398 20.5459C17.23 19.8458 18.6747 18.6602 19.6911 17.139C20.7075 15.6179 21.25 13.8295 21.25 12C21.2474 9.54756 20.272 7.19633 18.5378 5.46219C16.8037 3.72805 14.4524 2.75265 12 2.75Z" fill="white"/>
<path d="M11.9991 15C11.8002 15 11.6095 14.921 11.4688 14.7803C11.3282 14.6397 11.2491 14.4489 11.2491 14.25V13.43C11.2398 12.9287 11.3718 12.435 11.63 12.0052C11.8882 11.5755 12.2622 11.2271 12.7091 11C12.9711 10.8732 13.1944 10.6786 13.3557 10.4364C13.5171 10.1942 13.6106 9.91315 13.6267 9.62254C13.6427 9.33194 13.5806 9.04234 13.4469 8.78384C13.3132 8.52533 13.1127 8.30734 12.8662 8.15252C12.6198 7.9977 12.3364 7.91169 12.0454 7.90342C11.7545 7.89516 11.4667 7.96494 11.2118 8.10552C10.957 8.2461 10.7444 8.45236 10.5962 8.70286C10.448 8.95335 10.3696 9.23896 10.3691 9.53001C10.3691 9.72892 10.2901 9.91968 10.1495 10.0603C10.0088 10.201 9.81805 10.28 9.61914 10.28C9.42023 10.28 9.22946 10.201 9.08881 10.0603C8.94816 9.91968 8.86914 9.72892 8.86914 9.53001C8.87081 9.07205 8.97263 8.62001 9.16747 8.20556C9.3623 7.79112 9.64544 7.42431 9.99701 7.13085C10.3486 6.83739 10.7601 6.62439 11.2027 6.50678C11.6453 6.38916 12.1083 6.36979 12.5591 6.45001C13.1886 6.56843 13.7671 6.87594 14.2173 7.33154C14.6675 7.78713 14.9682 8.36916 15.0791 9.00001C15.2053 9.67421 15.105 10.3712 14.794 10.9825C14.4829 11.5938 13.9784 12.0851 13.3591 12.38C13.1696 12.4832 13.0123 12.6369 12.9046 12.824C12.797 13.011 12.7431 13.2242 12.7491 13.44V14.26C12.7465 14.4572 12.6663 14.6454 12.526 14.7839C12.3856 14.9224 12.1963 15 11.9991 15Z" fill="white"/>
<path d="M12 17.59C12.4142 17.59 12.75 17.2542 12.75 16.84C12.75 16.4258 12.4142 16.09 12 16.09C11.5858 16.09 11.25 16.4258 11.25 16.84C11.25 17.2542 11.5858 17.59 12 17.59Z" fill="white"/>
</svg>
