<svg width="20" height="20" viewBox="0 0 20 20" fill="none" xmlns="http://www.w3.org/2000/svg">
<path opacity="0.3" d="M2.33325 9.07494V13.8166C2.33325 15.0145 2.80911 16.1633 3.65615 17.0104C4.50319 17.8574 5.65202 18.3333 6.84992 18.3333H13.1499C13.7431 18.3333 14.3304 18.2164 14.8784 17.9895C15.4264 17.7625 15.9243 17.4298 16.3437 17.0104C16.7631 16.591 17.0958 16.093 17.3228 15.5451C17.5498 14.9971 17.6666 14.4097 17.6666 13.8166V9.07494C17.6666 8.8937 17.5946 8.7199 17.4664 8.59175C17.3383 8.4636 17.1645 8.3916 16.9833 8.3916H3.01659C2.83535 8.3916 2.66155 8.4636 2.5334 8.59175C2.40525 8.7199 2.33325 8.8937 2.33325 9.07494Z" fill="#A1A5B7"/>
<path d="M17.375 6.31663C17.4138 6.42074 17.427 6.53267 17.4134 6.64295C17.3998 6.75323 17.3599 6.85861 17.2969 6.95017C17.234 7.04173 17.1499 7.11678 17.0518 7.16897C16.9537 7.22115 16.8444 7.24893 16.7333 7.24996H3.40001C3.26419 7.25092 3.1302 7.21867 3.00969 7.15601C2.88919 7.09335 2.78583 7.00219 2.7086 6.89046C2.63138 6.77874 2.58263 6.64982 2.56661 6.51495C2.55059 6.38008 2.56777 6.24334 2.61667 6.11663C2.86946 5.5105 3.25069 4.9664 3.73409 4.52185C4.21748 4.0773 4.79154 3.74287 5.41667 3.54163V2.24163C5.41557 2.16651 5.42941 2.09193 5.45739 2.02221C5.48537 1.9525 5.52694 1.88904 5.57967 1.83553C5.6324 1.78203 5.69524 1.73954 5.76454 1.71054C5.83384 1.68155 5.90822 1.66662 5.98334 1.66663C6.13584 1.66663 6.28209 1.72721 6.38993 1.83504C6.49776 1.94287 6.55834 2.08913 6.55834 2.24163V3.33329C6.66667 3.33329 6.73334 3.33329 6.82501 3.33329H9.55001V2.24163C9.55001 2.08913 9.61059 1.94287 9.71842 1.83504C9.82625 1.72721 9.97251 1.66663 10.125 1.66663C10.2775 1.66663 10.4238 1.72721 10.5316 1.83504C10.6394 1.94287 10.7 2.08913 10.7 2.24163V3.33329H13.1167C13.2083 3.33329 13.2917 3.33329 13.3833 3.33329V2.24163C13.3822 2.16651 13.3961 2.09193 13.4241 2.02221C13.452 1.9525 13.4936 1.88904 13.5463 1.83553C13.5991 1.78203 13.6619 1.73954 13.7312 1.71054C13.8005 1.68155 13.8749 1.66662 13.95 1.66663C14.1025 1.66663 14.2488 1.72721 14.3566 1.83504C14.4644 1.94287 14.525 2.08913 14.525 2.24163V3.54163C15.1792 3.75817 15.7756 4.12047 16.2693 4.60118C16.763 5.08189 17.1411 5.66846 17.375 6.31663ZM7.27501 10.8333C7.13528 10.8349 6.99916 10.8779 6.88377 10.9567C6.76839 11.0355 6.6789 11.1467 6.62656 11.2763C6.57423 11.4059 6.56138 11.548 6.58965 11.6849C6.61791 11.8217 6.68602 11.9471 6.78541 12.0454C6.8848 12.1436 7.01102 12.2102 7.14819 12.2369C7.28536 12.2636 7.42735 12.2491 7.5563 12.1952C7.68524 12.1414 7.79538 12.0506 7.87285 11.9343C7.95032 11.818 7.99166 11.6814 7.99167 11.5416C7.98948 11.353 7.91301 11.1728 7.77884 11.0402C7.64468 10.9076 7.46364 10.8333 7.27501 10.8333ZM9.95001 10.8333C9.81028 10.8349 9.67416 10.8779 9.55877 10.9567C9.44339 11.0355 9.3539 11.1467 9.30156 11.2763C9.24923 11.4059 9.23638 11.548 9.26465 11.6849C9.29291 11.8217 9.36102 11.9471 9.46041 12.0454C9.5598 12.1436 9.68602 12.2102 9.82319 12.2369C9.96036 12.2636 10.1024 12.2491 10.2313 12.1952C10.3602 12.1414 10.4704 12.0506 10.5479 11.9343C10.6253 11.818 10.6667 11.6814 10.6667 11.5416C10.6645 11.353 10.588 11.1728 10.4538 11.0402C10.3197 10.9076 10.1386 10.8333 9.95001 10.8333ZM12.65 10.8333C12.557 10.8333 12.4649 10.8516 12.3789 10.8872C12.293 10.9228 12.2149 10.975 12.1491 11.0408C12.0834 11.1065 12.0312 11.1846 11.9956 11.2706C11.96 11.3565 11.9417 11.4486 11.9417 11.5416C11.9417 11.6346 11.96 11.7268 11.9956 11.8127C12.0312 11.8986 12.0834 11.9767 12.1491 12.0425C12.2149 12.1083 12.293 12.1604 12.3789 12.196C12.4649 12.2316 12.557 12.25 12.65 12.25C12.743 12.25 12.8351 12.2316 12.9211 12.196C13.007 12.1604 13.0851 12.1083 13.1509 12.0425C13.2166 11.9767 13.2688 11.8986 13.3044 11.8127C13.34 11.7268 13.3583 11.6346 13.3583 11.5416C13.3583 11.4486 13.34 11.3565 13.3044 11.2706C13.2688 11.1846 13.2166 11.1065 13.1509 11.0408C13.0851 10.975 13.007 10.9228 12.9211 10.8872C12.8351 10.8516 12.743 10.8333 12.65 10.8333ZM7.26667 13.5C7.12694 13.5016 6.99082 13.5445 6.87544 13.6234C6.76006 13.7022 6.67057 13.8134 6.61823 13.943C6.56589 14.0725 6.55305 14.2147 6.58131 14.3515C6.60958 14.4884 6.67769 14.6138 6.77708 14.712C6.87646 14.8103 7.00268 14.8769 7.13985 14.9036C7.27702 14.9302 7.41902 14.9157 7.54796 14.8619C7.67691 14.808 7.78705 14.7172 7.86452 14.6009C7.94199 14.4846 7.98333 14.348 7.98334 14.2083C7.98335 14.1146 7.96475 14.0218 7.92863 13.9353C7.89252 13.8488 7.8396 13.7703 7.77294 13.7045C7.70628 13.6386 7.6272 13.5866 7.5403 13.5515C7.4534 13.5164 7.36039 13.4989 7.26667 13.5ZM9.94167 13.5C9.80194 13.5016 9.66582 13.5445 9.55044 13.6234C9.43506 13.7022 9.34557 13.8134 9.29323 13.943C9.24089 14.0725 9.22805 14.2147 9.25631 14.3515C9.28458 14.4884 9.35269 14.6138 9.45208 14.712C9.55146 14.8103 9.67768 14.8769 9.81485 14.9036C9.95202 14.9302 10.094 14.9157 10.223 14.8619C10.3519 14.808 10.462 14.7172 10.5395 14.6009C10.617 14.4846 10.6583 14.348 10.6583 14.2083C10.6583 14.1146 10.6398 14.0218 10.6036 13.9353C10.5675 13.8488 10.5146 13.7703 10.4479 13.7045C10.3813 13.6386 10.3022 13.5866 10.2153 13.5515C10.1284 13.5164 10.0354 13.4989 9.94167 13.5ZM12.6333 13.5C12.494 13.5032 12.3587 13.5476 12.2445 13.6274C12.1302 13.7072 12.042 13.8189 11.9909 13.9486C11.9399 14.0783 11.9282 14.2201 11.9574 14.3564C11.9866 14.4927 12.0553 14.6174 12.155 14.7148C12.2547 14.8122 12.3809 14.878 12.5178 14.904C12.6548 14.93 12.7963 14.915 12.9248 14.861C13.0532 14.8069 13.1629 14.7161 13.24 14.6C13.3171 14.4839 13.3583 14.3477 13.3583 14.2083C13.3573 14.1142 13.3376 14.0212 13.3006 13.9347C13.2636 13.8481 13.2099 13.7697 13.1426 13.704C13.0752 13.6382 12.9956 13.5863 12.9082 13.5513C12.8209 13.5163 12.7275 13.4989 12.6333 13.5Z" fill="#A1A5B7"/>
</svg>
