<svg width="20" height="20" viewBox="0 0 20 20" fill="none" xmlns="http://www.w3.org/2000/svg">
<g id="design">
<path id="pencxil" d="M19.1027 3.5283L16.4718 0.897462C15.9867 0.430302 15.3395 0.169312 14.666 0.169312C13.9925 0.169312 13.3453 0.430302 12.8602 0.897462L10.9168 2.8683L2.30018 11.4483C2.23415 11.5194 2.18414 11.6038 2.15351 11.6958L0.265177 17.3791C0.205216 17.544 0.171201 17.7172 0.164344 17.8925C0.164344 17.8925 0.164344 17.8925 0.164344 17.9475C0.154806 18.2683 0.234113 18.5855 0.39351 18.8641C0.39351 18.8641 0.44851 18.9283 0.466844 18.965C0.53284 19.0785 0.612919 19.1832 0.705177 19.2766C0.876052 19.451 1.08002 19.5894 1.30512 19.6838C1.53021 19.7783 1.7719 19.8268 2.01601 19.8266C2.21875 19.8252 2.41993 19.7912 2.61184 19.7258L8.29518 17.8375C8.38765 17.8034 8.47196 17.7503 8.54268 17.6816L17.1318 9.08329L19.1027 7.1033C19.3457 6.86465 19.5377 6.57906 19.6669 6.26388C19.7962 5.94871 19.8599 5.61055 19.8543 5.26996C19.8382 4.6141 19.5688 3.98994 19.1027 3.5283ZM8.06601 16.2333L5.91184 14.0883L3.75768 11.9341L11.366 4.33496L15.6743 8.63413L8.06601 16.2333ZM2.16268 18.4516H1.98851C1.90319 18.4456 1.82097 18.4171 1.75018 18.3691C1.66355 18.2838 1.61134 18.1696 1.60351 18.0483C1.59536 17.9905 1.59536 17.9319 1.60351 17.8741L1.75018 17.1591L2.84101 18.25L2.16268 18.4516ZM4.29851 17.7458L2.25434 15.7016L3.08851 13.2083L4.92184 15.0416L6.75518 16.875L4.29851 17.7458ZM18.131 6.1683L16.646 7.66246L12.3377 3.35413L13.8318 1.86913C14.0534 1.64858 14.3534 1.52476 14.666 1.52476C14.9787 1.52476 15.2786 1.64858 15.5002 1.86913L18.131 4.49996C18.3516 4.72156 18.4754 5.02148 18.4754 5.33413C18.4754 5.64677 18.3516 5.9467 18.131 6.1683Z" fill="#7E8299"/>
</g>
</svg>
