<svg width="22" height="22" viewBox="0 0 22 22" fill="none" xmlns="http://www.w3.org/2000/svg">
<path d="M19.507 9.67083L18.2329 8.3875C18.1451 8.30152 18.0756 8.1988 18.0284 8.08542C17.9811 7.97204 17.9571 7.85032 17.9579 7.7275V5.89417C17.9459 5.40377 17.7426 4.93749 17.3915 4.59493C17.0404 4.25237 16.5692 4.06069 16.0787 4.06083H14.2454C14.1225 4.06155 14.0008 4.03758 13.8874 3.99034C13.7741 3.9431 13.6713 3.87355 13.5854 3.78583L12.302 2.51167C12.1308 2.33138 11.9246 2.18782 11.6961 2.08973C11.4676 1.99163 11.2215 1.94104 10.9729 1.94104C10.7242 1.94104 10.4781 1.99163 10.2496 2.08973C10.0211 2.18782 9.81497 2.33138 9.6437 2.51167L8.38787 3.7675C8.30189 3.85522 8.19916 3.92476 8.08578 3.972C7.97241 4.01924 7.85069 4.04322 7.72787 4.0425H5.89453C5.40413 4.05446 4.93785 4.25772 4.59529 4.60884C4.25273 4.95996 4.06105 5.43112 4.0612 5.92167V7.755C4.06192 7.87782 4.03794 7.99954 3.9907 8.11292C3.94346 8.2263 3.87392 8.32902 3.7862 8.415L2.51203 9.69833C2.33175 9.8696 2.18819 10.0758 2.09009 10.3043C1.99199 10.5328 1.94141 10.7788 1.94141 11.0275C1.94141 11.2762 1.99199 11.5222 2.09009 11.7507C2.18819 11.9792 2.33175 12.1854 2.51203 12.3567L3.7862 13.64C3.87392 13.726 3.94346 13.8287 3.9907 13.9421C4.03794 14.0555 4.06192 14.1772 4.0612 14.3V16.1333C4.0612 16.6317 4.25918 17.1097 4.6116 17.4621C4.96401 17.8145 5.44198 18.0125 5.94037 18.0125H7.7737C7.89652 18.0118 8.01824 18.0358 8.13162 18.083C8.245 18.1302 8.34772 18.1998 8.4337 18.2875L9.71703 19.5617C9.8883 19.742 10.0945 19.8855 10.323 19.9836C10.5515 20.0817 10.7975 20.1323 11.0462 20.1323C11.2949 20.1323 11.5409 20.0817 11.7694 19.9836C11.9979 19.8855 12.2041 19.742 12.3754 19.5617L13.6587 18.2875C13.7447 18.1998 13.8474 18.1302 13.9608 18.083C14.0742 18.0358 14.1959 18.0118 14.3187 18.0125H16.152C16.6504 18.0125 17.1284 17.8145 17.4808 17.4621C17.8332 17.1097 18.0312 16.6317 18.0312 16.1333V14.3C18.0305 14.1772 18.0545 14.0555 18.1017 13.9421C18.1489 13.8287 18.2185 13.726 18.3062 13.64L19.5804 12.3567C19.7604 12.1801 19.9021 11.9683 19.9965 11.7345C20.091 11.5006 20.1362 11.2498 20.1293 10.9978C20.1224 10.7457 20.0636 10.4977 19.9565 10.2694C19.8495 10.0411 19.6964 9.83732 19.507 9.67083ZM8.25037 7.33333C8.43167 7.33333 8.6089 7.3871 8.75964 7.48782C8.91039 7.58854 9.02788 7.73171 9.09726 7.89921C9.16664 8.06671 9.18479 8.25102 9.14942 8.42883C9.11405 8.60665 9.02675 8.76998 8.89855 8.89818C8.77035 9.02638 8.60702 9.11368 8.4292 9.14905C8.25138 9.18442 8.06707 9.16627 7.89957 9.09689C7.73207 9.02751 7.58891 8.91002 7.48819 8.75927C7.38746 8.60853 7.3337 8.4313 7.3337 8.25C7.3337 8.00689 7.43028 7.77373 7.60219 7.60182C7.77409 7.42991 8.00725 7.33333 8.25037 7.33333ZM8.7362 14.2358C8.67273 14.3001 8.59706 14.351 8.51363 14.3857C8.4302 14.4203 8.3407 14.4379 8.25037 14.4375C8.15981 14.4395 8.06983 14.4227 7.98617 14.3879C7.90251 14.3532 7.82702 14.3014 7.76453 14.2358C7.63579 14.1069 7.56347 13.9322 7.56347 13.75C7.56347 13.5678 7.63579 13.3931 7.76453 13.2642L13.2645 7.76417C13.3934 7.63542 13.5682 7.56311 13.7504 7.56311C13.9326 7.56311 14.1073 7.63542 14.2362 7.76417C14.3649 7.89307 14.4373 8.06781 14.4373 8.25C14.4373 8.43219 14.3649 8.60693 14.2362 8.73583L8.7362 14.2358ZM13.7504 14.6667C13.5691 14.6667 13.3918 14.6129 13.2411 14.5122C13.0903 14.4115 12.9729 14.2683 12.9035 14.1008C12.8341 13.9333 12.8159 13.749 12.8513 13.5712C12.8867 13.3934 12.974 13.23 13.1022 13.1018C13.2304 12.9736 13.3937 12.8863 13.5715 12.8509C13.7494 12.8156 13.9337 12.8337 14.1012 12.9031C14.2687 12.9725 14.4118 13.09 14.5125 13.2407C14.6133 13.3915 14.667 13.5687 14.667 13.75C14.667 13.9931 14.5705 14.2263 14.3985 14.3982C14.2266 14.5701 13.9935 14.6667 13.7504 14.6667Z" fill="#136099"/>
</svg>
