<svg width="24" height="24" viewBox="0 0 24 24" fill="none" xmlns="http://www.w3.org/2000/svg">
<path d="M11.3295 22.75H6.88945C5.61865 22.7878 4.38457 22.3209 3.457 21.4514C2.52943 20.5819 1.98383 19.3806 1.93945 18.11V5.88999C1.98383 4.6194 2.52943 3.41805 3.457 2.54857C4.38457 1.67909 5.61865 1.21221 6.88945 1.24999H11.3295C12.5993 1.21225 13.8323 1.67944 14.7583 2.54919C15.6842 3.41893 16.2277 4.62029 16.2695 5.88999C16.2695 6.09155 16.1894 6.28486 16.0469 6.42739C15.9043 6.56992 15.711 6.64999 15.5095 6.64999C15.3079 6.64999 15.1146 6.56992 14.9721 6.42739C14.8295 6.28486 14.7495 6.09155 14.7495 5.88999C14.7054 5.02427 14.3214 4.21093 13.681 3.62671C13.0407 3.04249 12.1956 2.73462 11.3295 2.76999H6.88945C6.02265 2.73196 5.17609 3.03893 4.53511 3.62369C3.89412 4.20844 3.51094 5.02334 3.46945 5.88999V18.11C3.51094 18.9766 3.89412 19.7915 4.53511 20.3763C5.17609 20.9611 6.02265 21.268 6.88945 21.23H11.3295C12.1956 21.2654 13.0407 20.9575 13.681 20.3733C14.3214 19.7891 14.7054 18.9757 14.7495 18.11C14.7495 17.9084 14.8295 17.7151 14.9721 17.5726C15.1146 17.4301 15.3079 17.35 15.5095 17.35C15.711 17.35 15.9043 17.4301 16.0469 17.5726C16.1894 17.7151 16.2695 17.9084 16.2695 18.11C16.2277 19.3797 15.6842 20.581 14.7583 21.4508C13.8323 22.3205 12.5993 22.7877 11.3295 22.75ZM7.87945 12C7.87945 12.0998 7.89911 12.1986 7.9373 12.2908C7.9755 12.383 8.03148 12.4668 8.10205 12.5374C8.17262 12.608 8.25641 12.6639 8.34861 12.7021C8.44082 12.7403 8.53965 12.76 8.63945 12.76H18.7095L16.9995 14.43C16.9281 14.5007 16.8715 14.5848 16.8328 14.6775C16.7941 14.7701 16.7742 14.8696 16.7742 14.97C16.7742 15.0704 16.7941 15.1698 16.8328 15.2625C16.8715 15.3552 16.9281 15.4393 16.9995 15.51C17.0702 15.5809 17.1545 15.6368 17.2472 15.6746C17.3399 15.7124 17.4393 15.7312 17.5395 15.73C17.6381 15.731 17.7359 15.7121 17.827 15.6743C17.9181 15.6364 18.0006 15.5806 18.0695 15.51L21.0695 12.51C21.1408 12.4393 21.1974 12.3552 21.2361 12.2625C21.2748 12.1698 21.2947 12.0704 21.2947 11.97C21.2947 11.8696 21.2748 11.7701 21.2361 11.6775C21.1974 11.5848 21.1408 11.5007 21.0695 11.43L18.0695 8.42999C17.9996 8.35894 17.9164 8.3025 17.8245 8.26398C17.7327 8.22545 17.6341 8.20561 17.5345 8.20561C17.4348 8.20561 17.3362 8.22545 17.2444 8.26398C17.1525 8.3025 17.0693 8.35894 16.9995 8.42999C16.9281 8.50066 16.8715 8.58476 16.8328 8.67745C16.7941 8.77014 16.7742 8.86957 16.7742 8.96999C16.7742 9.07042 16.7941 9.16984 16.8328 9.26253C16.8715 9.35522 16.9281 9.43932 16.9995 9.50999L18.6695 11.18H8.63945C8.53439 11.1797 8.43041 11.2011 8.33406 11.243C8.23771 11.2849 8.15109 11.3463 8.07967 11.4234C8.00826 11.5004 7.95359 11.5914 7.91913 11.6907C7.88467 11.7899 7.87116 11.8953 7.87945 12Z" fill="white"/>
</svg>
