<svg width="18" height="18" viewBox="0 0 18 18" fill="none" xmlns="http://www.w3.org/2000/svg">
<g id="files-folders">
<path id="filter-tablet" d="M12.7418 17.9584H6.25844C4.85202 17.9452 3.50833 17.3743 2.52242 16.3712C1.53652 15.3681 0.989005 14.0148 1.00011 12.6084V10.5834C1.00009 10.4212 1.06392 10.2656 1.17777 10.1502C1.29162 10.0348 1.44634 9.96888 1.60844 9.96669C1.68833 9.96777 1.76722 9.98459 1.84061 10.0162C1.91401 10.0477 1.98046 10.0935 2.03617 10.1507C2.09189 10.208 2.13578 10.2757 2.16534 10.3499C2.1949 10.4241 2.20954 10.5035 2.20844 10.5834V12.6084C2.19851 13.1485 2.29563 13.6852 2.4942 14.1876C2.69278 14.69 2.98886 15.1481 3.36539 15.5354C3.74191 15.9228 4.19141 16.2318 4.68795 16.4445C5.1845 16.6573 5.71826 16.7696 6.25844 16.775H12.7418C13.2816 16.7696 13.8149 16.6572 14.311 16.4444C14.8071 16.2315 15.2561 15.9224 15.6319 15.5349C16.0078 15.1475 16.3031 14.6893 16.5007 14.187C16.6984 13.6846 16.7945 13.1481 16.7834 12.6084V6.33335C16.7923 5.25181 16.3717 4.21091 15.614 3.43912C14.8563 2.66733 13.8233 2.22769 12.7418 2.21669H11.3334C11.1833 2.19915 11.0448 2.12707 10.9443 2.01415C10.8439 1.90124 10.7883 1.75534 10.7883 1.60419C10.7883 1.45303 10.8439 1.30714 10.9443 1.19422C11.0448 1.0813 11.1833 1.00923 11.3334 0.991687H12.7418C14.146 1.00489 15.4876 1.57483 16.4719 2.57636C17.4562 3.57789 18.0029 4.92912 17.9918 6.33335V12.6084C18.0029 14.0134 17.4565 15.3655 16.4724 16.3683C15.4883 17.3712 14.1467 17.943 12.7418 17.9584ZM4.13344 9.25835L4.96677 8.97502C5.21198 8.8923 5.42469 8.73404 5.5744 8.52295C5.72411 8.31187 5.80312 8.05879 5.80011 7.80002V5.95002C5.79866 5.91909 5.80387 5.88821 5.81537 5.85946C5.82687 5.83071 5.8444 5.80476 5.86677 5.78335L7.77511 4.07502C7.98793 3.88257 8.15742 3.64709 8.27236 3.38418C8.38729 3.12127 8.44504 2.83694 8.44177 2.55002V1.95835C8.46211 1.47119 8.28843 0.995843 7.95881 0.636545C7.6292 0.277248 7.17055 0.0633255 6.68344 0.041687H1.76677C1.27967 0.0633255 0.821019 0.277248 0.491402 0.636545C0.161785 0.995843 -0.0118967 1.47119 0.00844023 1.95835V2.55002C0.00569573 2.83608 0.0628519 3.11954 0.176233 3.38218C0.289614 3.64483 0.45671 3.88083 0.666774 4.07502L2.58344 5.78335C2.60582 5.80476 2.62335 5.83071 2.63485 5.85946C2.64635 5.88821 2.65155 5.91909 2.65011 5.95002V8.08335C2.65073 8.28024 2.69785 8.4742 2.78764 8.64942C2.87742 8.82464 3.00733 8.97618 3.16677 9.09169C3.35564 9.22974 3.58285 9.30547 3.81677 9.30835C3.92413 9.30634 4.03069 9.28951 4.13344 9.25835ZM6.69177 1.26669C6.85461 1.28955 7.00247 1.37405 7.10481 1.50276C7.20716 1.63146 7.25618 1.79455 7.24177 1.95835V2.55002C7.24243 2.66168 7.22063 2.77233 7.17769 2.8754C7.13474 2.97847 7.07152 3.07186 6.99177 3.15002L5.07511 4.83335C4.9236 4.97167 4.80298 5.1404 4.72113 5.32851C4.63929 5.51662 4.59804 5.71988 4.60011 5.92502V7.77502L3.83344 8.03335V5.95002C3.84229 5.74183 3.80589 5.53419 3.72677 5.34141C3.64764 5.14863 3.52767 4.9753 3.37511 4.83335L1.50011 3.16669C1.42036 3.08853 1.35714 2.99514 1.3142 2.89207C1.27125 2.789 1.24945 2.67835 1.25011 2.56669V1.95835C1.23358 1.79413 1.28181 1.62994 1.38454 1.50075C1.48727 1.37156 1.63638 1.28758 1.80011 1.26669H6.69177ZM13.7751 9.20002C13.7751 9.0379 13.7113 8.8823 13.5974 8.76689C13.4836 8.65148 13.3289 8.58554 13.1668 8.58335H9.50011C9.33656 8.58335 9.17971 8.64832 9.06406 8.76397C8.94841 8.87962 8.88344 9.03647 8.88344 9.20002C8.88344 9.36357 8.94841 9.52042 9.06406 9.63607C9.17971 9.75172 9.33656 9.81669 9.50011 9.81669H13.1668C13.3289 9.8145 13.4836 9.74856 13.5974 9.63315C13.7113 9.51774 13.7751 9.36214 13.7751 9.20002ZM14.0251 12.675C14.0251 12.5151 13.9622 12.3616 13.8499 12.2478C13.7376 12.1339 13.585 12.0689 13.4251 12.0667H6.54177C6.39164 12.0842 6.25317 12.1563 6.15268 12.2692C6.05219 12.3821 5.99667 12.528 5.99667 12.6792C5.99667 12.8303 6.05219 12.9762 6.15268 13.0892C6.25317 13.2021 6.39164 13.2741 6.54177 13.2917H13.4251C13.5821 13.2831 13.7296 13.2141 13.8368 13.0991C13.944 12.9842 14.0025 12.8322 14.0001 12.675H14.0251Z" fill="#7E8299"/>
</g>
</svg>
