<svg width="22" height="22" viewBox="0 0 22 22" fill="none" xmlns="http://www.w3.org/2000/svg">
<path d="M10.3488 18.6175C10.356 18.9239 10.2717 19.2255 10.1066 19.4838C9.94147 19.742 9.70304 19.9451 9.42182 20.067C9.1406 20.189 8.82939 20.2242 8.52803 20.1682C8.22666 20.1123 7.94885 19.9677 7.73016 19.7529C7.51147 19.5381 7.36183 19.263 7.30042 18.9627C7.239 18.6624 7.2686 18.3506 7.38542 18.0672C7.50224 17.7838 7.70096 17.5418 7.95616 17.372C8.21135 17.2022 8.51141 17.1124 8.81792 17.1142C9.21992 17.1117 9.60656 17.2684 9.89338 17.5501C10.1802 17.8318 10.3439 18.2155 10.3488 18.6175ZM15.7021 17.1142C15.4038 17.1196 15.1138 17.2131 14.8685 17.383C14.6232 17.5528 14.4336 17.7915 14.3237 18.0688C14.2137 18.3461 14.1881 18.6498 14.2503 18.9416C14.3125 19.2334 14.4596 19.5003 14.6731 19.7087C14.8866 19.9171 15.1569 20.0577 15.4501 20.1129C15.7434 20.168 16.0463 20.1352 16.3209 20.0185C16.5955 19.9019 16.8295 19.7066 16.9934 19.4573C17.1573 19.208 17.2438 18.9158 17.2421 18.6175C17.2397 18.4177 17.198 18.2202 17.1193 18.0365C17.0406 17.8528 16.9265 17.6864 16.7835 17.5468C16.6405 17.4072 16.4714 17.2972 16.2858 17.2229C16.1003 17.1487 15.9019 17.1117 15.7021 17.1142ZM18.2413 3.74915H7.69042C7.54504 3.74884 7.40023 3.76733 7.25959 3.80415C7.26347 3.77679 7.26347 3.74901 7.25959 3.72165L6.34292 2.19082C6.27536 2.07935 6.17965 1.98762 6.0654 1.92487C5.95116 1.86211 5.82241 1.83054 5.69209 1.83332H2.56625C2.46494 1.82187 2.36234 1.83194 2.26519 1.86287C2.16803 1.89381 2.0785 1.94492 2.00246 2.01284C1.92642 2.08077 1.86558 2.16399 1.82393 2.25706C1.78227 2.35013 1.76074 2.45094 1.76074 2.5529C1.76074 2.65486 1.78227 2.75568 1.82393 2.84874C1.86558 2.94181 1.92642 3.02503 2.00246 3.09296C2.0785 3.16089 2.16803 3.21199 2.26519 3.24293C2.36234 3.27387 2.46494 3.28394 2.56625 3.27249H5.31625L6.01292 4.44582C6.03704 4.49563 6.06789 4.54189 6.10459 4.58332C5.91393 4.85352 5.7999 5.17026 5.77459 5.49999L5.62792 7.39748H20.0379L20.1663 5.77499C20.1841 5.51289 20.1472 5.24995 20.0581 5.00282C19.969 4.75569 19.8296 4.52976 19.6486 4.33932C19.4677 4.14888 19.2492 3.9981 19.0069 3.89651C18.7646 3.79492 18.5039 3.74474 18.2413 3.74915ZM5.20625 13.0625C5.18852 13.3238 5.22508 13.586 5.31363 13.8325C5.40217 14.0789 5.54079 14.3044 5.72076 14.4947C5.90072 14.685 6.11813 14.836 6.35931 14.9382C6.60048 15.0403 6.86019 15.0914 7.12209 15.0883H17.6821C18.1629 15.0901 18.6267 14.9111 18.9816 14.5867C19.3365 14.2624 19.5565 13.8165 19.5979 13.3375L19.9279 8.83665H5.49959L5.20625 13.0625Z" fill="#136099"/>
</svg>
