<svg width="20" height="20" viewBox="0 0 20 20" fill="none" xmlns="http://www.w3.org/2000/svg">
<path fill-rule="evenodd" clip-rule="evenodd" d="M2.82059 9.16663C2.82059 5.66174 5.66186 2.82047 9.16675 2.82047C12.6716 2.82047 15.5129 5.66174 15.5129 9.16663C15.5129 12.6715 12.6716 15.5128 9.16675 15.5128C5.66186 15.5128 2.82059 12.6715 2.82059 9.16663ZM9.16675 1.66663C5.02461 1.66663 1.66675 5.02449 1.66675 9.16663C1.66675 13.3088 5.02461 16.6666 9.16675 16.6666C13.3089 16.6666 16.6667 13.3088 16.6667 9.16663C16.6667 5.02449 13.3089 1.66663 9.16675 1.66663ZM16.4837 15.5997C16.2396 15.3556 15.8439 15.3556 15.5998 15.5997C15.3557 15.8438 15.3557 16.2395 15.5998 16.4836L17.2665 18.1502C17.5106 18.3943 17.9063 18.3943 18.1504 18.1502C18.3944 17.9062 18.3944 17.5104 18.1504 17.2664L16.4837 15.5997Z" fill="#7E8299"/>
</svg>
