<svg width="237" height="48" viewBox="0 0 237 48" fill="none" xmlns="http://www.w3.org/2000/svg">
<g clip-path="url(#clip0_8_9567)">
<path d="M228.678 9.48196L220.598 18.6164V9.48196H214.752V32.541H220.598V22.8328L229.247 32.541H236.8L226.163 20.459L236.03 9.48196H228.678Z" fill="#EF3124"/>
<path d="M204.442 18.082H196.363V9.48196H190.513V32.541H196.363V23.4492H204.442V32.541H210.289V9.48196H204.442V18.082Z" fill="#EF3124"/>
<mask id="mask0_8_9567" style="mask-type:luminance" maskUnits="userSpaceOnUse" x="0" y="0" width="237" height="48">
<path d="M236.8 0H0V48H236.8V0Z" fill="#EF3124"/>
</mask>
<path d="M34.7172 21.9738C34.5775 26.2754 34.0282 27.1344 31.6297 27.1344V32.541H32.5234C38.5003 32.541 39.9368 29.4262 40.1578 22.5049L40.4016 14.8459H46.0047V32.541H51.8516V9.48196H35.1235L34.7172 21.9738Z" fill="#EF3124"/>
<path d="M66.3859 16.4852H62.1641V9.48196H56.3172V32.541H66.4671C72.8438 32.541 75.1156 28.3639 75.1156 24.4295C75.1156 19.3508 71.9468 16.482 66.3859 16.482M65.9406 27.459H62.1641V21.6H65.9406C67.9719 21.6 69.1875 22.5016 69.1875 24.4262C69.1875 26.5148 68.0109 27.459 65.9406 27.459Z" fill="#EF3124"/>
<path d="M94.1577 8.94753V0.386871H88.3109V8.94753C81.6125 9.5213 77.1046 14.3147 77.1046 20.9901C77.1046 27.6656 81.6125 32.5016 88.3109 33.0754V41.7606H94.1577V33.0754C100.856 32.5442 105.364 27.7082 105.364 20.9901C105.364 14.2721 100.856 9.47867 94.1577 8.94753ZM88.3109 27.5049C85.0641 27.0524 83.0328 24.5967 83.0328 20.9934C83.0328 17.3902 85.0641 14.9311 88.3109 14.482V27.5082V27.5049ZM94.1577 27.5049V14.4787C97.4046 14.9279 99.4359 17.3869 99.4359 20.9901C99.4359 24.5934 97.4046 27.0524 94.1577 27.5016" fill="#EF3124"/>
<path d="M127.292 25.4557V17.7147C127.292 12.0623 123.72 8.49835 117.711 8.49835C111.702 8.49835 108.211 12.2688 107.925 16.2H113.853C114.055 15.341 114.948 13.8656 117.711 13.8656C119.986 13.8656 121.445 14.9311 121.445 17.7147H115.637C110.441 17.7147 107.353 20.459 107.353 25.0459C107.353 29.6328 110.73 33.1147 115.595 33.1147C119.164 33.1147 121.146 31.4131 122.011 30.1246C122.781 31.682 124.487 32.541 126.72 32.541H128.751V27.2164C127.695 27.2164 127.289 26.7246 127.289 25.4557M121.442 23.941C121.442 26.6033 119.573 28.118 117.139 28.118C115.026 28.118 113.362 27.341 113.362 25.0459C113.362 22.7508 115.189 22.4262 116.772 22.4262H121.442V23.941Z" fill="#EF3124"/>
<path d="M152.347 12.7574H145.811V6.24589H160.956V0.386871H139.681V32.541H152.35C159.374 32.541 163.394 29.0197 163.394 22.5475C163.394 16.4459 159.374 12.7574 152.35 12.7574M152.067 26.7246H145.814V18.3672H152.067C155.314 18.3672 157.144 19.882 157.144 22.5442C157.144 25.2065 155.318 26.7213 152.067 26.7213" fill="#EF3124"/>
<path d="M185.764 25.4557V17.7147C185.764 12.0623 182.192 8.49835 176.183 8.49835C170.174 8.49835 166.683 12.2688 166.397 16.2H172.325C172.527 15.341 173.42 13.8656 176.183 13.8656C178.458 13.8656 179.917 14.9311 179.917 17.7147H174.109C168.913 17.7147 165.825 20.459 165.825 25.0459C165.825 29.6328 169.202 33.1147 174.067 33.1147C177.636 33.1147 179.618 31.4131 180.483 30.1246C181.253 31.682 182.959 32.541 185.192 32.541H187.223V27.2164C186.167 27.2164 185.761 26.7246 185.761 25.4557M179.914 23.941C179.914 26.6033 178.045 28.118 175.611 28.118C173.498 28.118 171.834 27.341 171.834 25.0459C171.834 22.7508 173.661 22.4262 175.244 22.4262H179.914V23.941Z" fill="#EF3124"/>
<path d="M31.2657 41.4459H0V48H31.2657V41.4459Z" fill="#EF3124"/>
<path d="M21.3172 4.8C20.4234 2.11803 19.3964 0 15.8766 0C12.3568 0 11.2615 2.1082 10.3255 4.8L0.650017 32.541H7.06565L9.29845 25.9475H21.6422L23.7125 32.541H30.5344L21.3172 4.8ZM11.1672 20.3771L15.5516 7.22951H15.7141L19.8547 20.3771H11.164H11.1672Z" fill="#EF3124"/>
</g>
<defs>
<clipPath id="clip0_8_9567">
<rect width="236.8" height="48" fill="#EF3124"/>
</clipPath>
</defs>
</svg>
