<svg width="41" height="40" viewBox="0 0 41 40" fill="none" xmlns="http://www.w3.org/2000/svg">
<g opacity="0.3">
<path d="M30.333 8.63336H10.4164C9.44494 8.63492 8.48469 8.84059 7.59785 9.23705C6.71101 9.6335 5.91738 10.2119 5.2684 10.9347C4.61942 11.6576 4.12957 12.5087 3.83062 13.433C3.53167 14.3573 3.43029 15.3341 3.53303 16.3L5.01637 30.2C5.20106 31.8974 6.00554 33.4669 7.27569 34.6079C8.54584 35.7489 10.1923 36.3811 11.8997 36.3834H28.9497C30.6766 36.3865 32.3422 35.7434 33.619 34.5807C34.8959 33.418 35.6916 31.8197 35.8497 30.1L37.1497 16.2167C37.2371 15.2633 37.1265 14.3022 36.825 13.3936C36.5234 12.4849 36.0374 11.6484 35.3974 10.9364C34.7574 10.2244 33.9772 9.65234 33.1057 9.25603C32.2342 8.85972 31.2903 8.64774 30.333 8.63336ZM23.383 23.0834C23.383 23.3824 23.3239 23.6785 23.2089 23.9546C23.094 24.2307 22.9255 24.4814 22.7133 24.6921C22.501 24.9028 22.2492 25.0694 21.9722 25.1823C21.6953 25.2952 21.3988 25.3522 21.0997 25.35H19.1664C18.8673 25.3522 18.5708 25.2952 18.2938 25.1823C18.0169 25.0694 17.7651 24.9028 17.5528 24.6921C17.3406 24.4814 17.1721 24.2307 17.0572 23.9546C16.9422 23.6785 16.883 23.3824 16.883 23.0834V19.1167H23.2997L23.383 23.0834Z" fill="#0DCC58"/>
</g>
<path d="M37.1497 16.2167C37.2371 15.2633 37.1265 14.3022 36.825 13.3936C36.5234 12.4849 36.0374 11.6484 35.3974 10.9364C34.7574 10.2244 33.9772 9.65232 33.1057 9.25602C32.2342 8.85971 31.2903 8.64772 30.333 8.63335H27.6497V6.96668C27.6497 5.76878 27.1738 4.61995 26.3268 3.77291C25.4798 2.92587 24.3309 2.45001 23.133 2.45001H17.483C16.2994 2.44981 15.1631 2.91422 14.3184 3.74332C13.4737 4.57242 12.9882 5.69995 12.9664 6.88335V8.55001H10.4164C9.44494 8.55157 8.48469 8.75724 7.59785 9.1537C6.71101 9.55015 5.91738 10.1285 5.2684 10.8514C4.61942 11.5742 4.12957 12.4254 3.83062 13.3496C3.53167 14.2739 3.43029 15.2507 3.53303 16.2167L3.78303 18.6167C7.25687 21.2129 11.3576 22.8406 15.6664 23.3333C15.7172 24.2296 16.1072 25.073 16.7573 25.6921C17.4073 26.3112 18.2687 26.6596 19.1664 26.6667H21.0164C21.8901 26.6627 22.7314 26.3352 23.3778 25.7473C24.0242 25.1594 24.4298 24.3528 24.5164 23.4833C29.0853 22.9996 33.4187 21.2119 36.9997 18.3333L37.1497 16.2167ZM15.483 6.88335C15.483 6.34849 15.6955 5.83555 16.0737 5.45735C16.4519 5.07915 16.9648 4.86668 17.4997 4.86668H23.1497C23.6846 4.86668 24.1975 5.07915 24.5757 5.45735C24.9539 5.83555 25.1664 6.34849 25.1664 6.88335V8.55001H15.4664L15.483 6.88335ZM21.9997 23.0833C21.9997 23.2183 21.9729 23.3518 21.9207 23.4763C21.8686 23.6007 21.7922 23.7136 21.6961 23.8082C21.5999 23.9028 21.4858 23.9774 21.3605 24.0275C21.2353 24.0776 21.1013 24.1022 20.9664 24.1H19.1664C19.0315 24.1022 18.8975 24.0776 18.7722 24.0275C18.6469 23.9774 18.5329 23.9028 18.4367 23.8082C18.3405 23.7136 18.2641 23.6007 18.212 23.4763C18.1599 23.3518 18.133 23.2183 18.133 23.0833V20.3667H21.9997V23.0833Z" fill="#0DCC58"/>
</svg>
