<svg width="41" height="40" viewBox="0 0 41 40" fill="none" xmlns="http://www.w3.org/2000/svg">
<path opacity="0.3" d="M29.5169 13.8C29.1854 13.8 28.8675 13.6683 28.633 13.4339C28.3986 13.1995 28.2669 12.8815 28.2669 12.55C28.1806 10.8069 27.4273 9.1638 26.1631 7.96067C24.8989 6.75755 23.2205 6.08655 21.4753 6.08655C19.7301 6.08655 18.0516 6.75755 16.7874 7.96067C15.5232 9.1638 14.77 10.8069 14.6836 12.55C14.6836 12.8815 14.5519 13.1995 14.3175 13.4339C14.0831 13.6683 13.7651 13.8 13.4336 13.8C13.1021 13.8 12.7841 13.6683 12.5497 13.4339C12.3153 13.1995 12.1836 12.8815 12.1836 12.55C12.2851 10.1538 13.3084 7.88943 15.0398 6.2298C16.7713 4.57018 19.0769 3.64362 21.4753 3.64362C23.8736 3.64362 26.1793 4.57018 27.9107 6.2298C29.6421 7.88943 30.6654 10.1538 30.7669 12.55C30.7626 12.8802 30.6295 13.1956 30.396 13.4291C30.1625 13.6626 29.8471 13.7957 29.5169 13.8Z" fill="#0DCC58"/>
<path d="M30.467 12.55H12.4836C11.5432 12.5497 10.614 12.7539 9.76038 13.1486C8.90679 13.5433 8.14928 14.119 7.5404 14.8357C6.93151 15.5524 6.48584 16.393 6.23429 17.2991C5.98274 18.2053 5.93133 19.1553 6.08364 20.0833L7.93364 31.25C8.18578 32.7617 8.96528 34.1352 10.1338 35.1267C11.3024 36.1183 12.7844 36.6639 14.317 36.6667H28.4503C29.9673 36.6707 31.4372 36.1398 32.6016 35.1675C33.766 34.1951 34.5504 32.8434 34.817 31.35L36.8336 20.1833C37.0017 19.2507 36.9633 18.2926 36.7212 17.3765C36.479 16.4603 36.0389 15.6084 35.432 14.8806C34.825 14.1529 34.0659 13.5671 33.2081 13.1644C32.3503 12.7617 31.4146 12.552 30.467 12.55ZM13.4336 20.4167C13.104 20.4167 12.7818 20.3189 12.5077 20.1358C12.2336 19.9526 12.02 19.6923 11.8938 19.3878C11.7677 19.0833 11.7347 18.7481 11.799 18.4248C11.8633 18.1015 12.022 17.8046 12.2551 17.5715C12.4882 17.3384 12.7852 17.1797 13.1085 17.1153C13.4318 17.051 13.7669 17.084 14.0714 17.2102C14.376 17.3363 14.6363 17.55 14.8194 17.824C15.0026 18.0981 15.1003 18.4204 15.1003 18.75C15.1003 19.192 14.9247 19.6159 14.6121 19.9285C14.2996 20.2411 13.8757 20.4167 13.4336 20.4167ZM29.517 20.4167C29.1873 20.4167 28.8651 20.3189 28.591 20.1358C28.3169 19.9526 28.1033 19.6923 27.9772 19.3878C27.851 19.0833 27.818 18.7481 27.8823 18.4248C27.9466 18.1015 28.1054 17.8046 28.3385 17.5715C28.5715 17.3384 28.8685 17.1797 29.1918 17.1153C29.5151 17.051 29.8502 17.084 30.1548 17.2102C30.4593 17.3363 30.7196 17.55 30.9028 17.824C31.0859 18.0981 31.1836 18.4204 31.1836 18.75C31.1836 18.9689 31.1405 19.1856 31.0568 19.3878C30.973 19.59 30.8502 19.7737 30.6955 19.9285C30.5407 20.0833 30.357 20.206 30.1548 20.2898C29.9526 20.3735 29.7358 20.4167 29.517 20.4167Z" fill="#0DCC58"/>
</svg>
