<svg width="22" height="22" viewBox="0 0 22 22" fill="none" xmlns="http://www.w3.org/2000/svg">
<path d="M13.6033 19.9374C13.1971 19.9389 12.7997 19.8194 12.4618 19.5941C12.1238 19.3688 11.8606 19.0479 11.7058 18.6724L10.6333 16.1424C10.1503 16.4355 9.68508 16.7569 9.23998 17.1049C9.00128 17.288 8.71684 17.4019 8.41776 17.4342C8.11868 17.4666 7.81646 17.416 7.54415 17.2882C7.27138 17.1564 7.04096 16.9509 6.87895 16.695C6.71695 16.439 6.62984 16.1428 6.62748 15.8399V4.58322C6.62468 4.26336 6.71757 3.94996 6.89421 3.68329C7.07086 3.41662 7.3232 3.20884 7.61881 3.08665C7.91443 2.96447 8.23982 2.93344 8.5532 2.99757C8.86658 3.06171 9.15363 3.21806 9.37748 3.44655L17.3341 11.4124C17.5486 11.6243 17.6985 11.8926 17.7667 12.1863C17.8348 12.4799 17.8183 12.7869 17.7191 13.0716C17.6176 13.3569 17.4386 13.6084 17.2023 13.7978C16.9659 13.9872 16.6815 14.1071 16.3808 14.1441C15.7156 14.2166 15.0568 14.3391 14.41 14.5107L15.4916 17.0774C15.5983 17.3263 15.6544 17.594 15.6568 17.8648C15.6591 18.1356 15.6076 18.4042 15.5053 18.6549C15.4029 18.9057 15.2518 19.1336 15.0606 19.3254C14.8694 19.5173 14.642 19.6692 14.3916 19.7724C14.143 19.8811 13.8746 19.9372 13.6033 19.9374ZM10.9633 14.4374C11.0975 14.4421 11.2277 14.4841 11.3393 14.5586C11.451 14.633 11.5398 14.737 11.5958 14.859L12.9708 18.1132C13.0453 18.282 13.183 18.4149 13.3544 18.4835C13.5257 18.552 13.7171 18.5507 13.8875 18.4799C13.9727 18.4449 14.05 18.3932 14.1148 18.3278C14.1796 18.2624 14.2307 18.1847 14.2649 18.0992C14.2991 18.0137 14.3157 17.9222 14.3139 17.8301C14.312 17.738 14.2917 17.6473 14.2541 17.5632L12.8333 14.3366C12.7881 14.2454 12.7645 14.145 12.7645 14.0432C12.7645 13.9414 12.7881 13.8411 12.8333 13.7499C12.8725 13.6633 12.9295 13.5859 13.0006 13.5227C13.0717 13.4595 13.1552 13.412 13.2458 13.3832C14.2068 13.0751 15.1953 12.8602 16.1975 12.7416C16.2404 12.7386 16.2815 12.7231 16.3157 12.6971C16.3499 12.671 16.3757 12.6355 16.39 12.5949C16.4043 12.554 16.4067 12.5099 16.3969 12.4678C16.3872 12.4256 16.3657 12.387 16.335 12.3566L8.41498 4.41822C8.38128 4.38647 8.33905 4.36523 8.29347 4.35709C8.24789 4.34895 8.20092 4.35427 8.15831 4.37238C8.11732 4.39027 8.08246 4.41977 8.05803 4.45723C8.03359 4.4947 8.02066 4.53849 8.02081 4.58322V15.8399C8.01867 15.8838 8.02975 15.9274 8.05263 15.965C8.07551 16.0026 8.10913 16.0324 8.14915 16.0507C8.18372 16.076 8.22546 16.0897 8.26831 16.0897C8.31117 16.0897 8.35291 16.076 8.38748 16.0507C9.0931 15.499 9.84442 15.0083 10.6333 14.5841C10.7399 14.5066 10.8682 14.4649 11 14.4649L10.9633 14.4374ZM13.5666 4.58322L14.4375 2.97905C14.5197 2.82047 14.537 2.63611 14.4857 2.46501C14.4343 2.29391 14.3184 2.14951 14.1625 2.06238C14.0845 2.01923 13.9986 1.9921 13.91 1.98258C13.8213 1.97307 13.7317 1.98136 13.6463 2.00698C13.5609 2.0326 13.4815 2.07502 13.4127 2.13176C13.3439 2.1885 13.2872 2.25841 13.2458 2.33738L12.3291 3.95072C12.2445 4.10883 12.2259 4.29403 12.2774 4.46581C12.329 4.6376 12.4464 4.78198 12.6041 4.86738C12.7046 4.9245 12.8187 4.95303 12.9341 4.94988C13.0634 4.95444 13.1913 4.92245 13.3032 4.85759C13.4151 4.79274 13.5064 4.69764 13.5666 4.58322ZM16.3166 7.82822L17.9575 7.00322C18.0381 6.96229 18.1099 6.90588 18.1688 6.8372C18.2276 6.76852 18.2724 6.68892 18.3005 6.60295C18.3286 6.51698 18.3394 6.42632 18.3325 6.33614C18.3256 6.24596 18.3009 6.15804 18.26 6.07738C18.2191 5.99673 18.1626 5.92493 18.094 5.86608C18.0253 5.80723 17.9457 5.76248 17.8597 5.73439C17.7737 5.7063 17.6831 5.69542 17.5929 5.70237C17.5027 5.70931 17.4148 5.73396 17.3341 5.77488L15.6933 6.59988C15.5549 6.66952 15.444 6.78389 15.3787 6.92443C15.3135 7.06497 15.2976 7.22344 15.3337 7.37414C15.3697 7.52485 15.4557 7.65894 15.5775 7.75467C15.6994 7.85041 15.85 7.90216 16.005 7.90155C16.1146 7.88929 16.219 7.84817 16.3075 7.78238L16.3166 7.82822ZM5.06915 9.16655C5.0716 9.07594 5.05586 8.98576 5.02287 8.90133C4.98988 8.8169 4.9403 8.73994 4.87707 8.675C4.81383 8.61006 4.73822 8.55845 4.65471 8.52322C4.57119 8.48799 4.48146 8.46985 4.39081 8.46988H2.55748C2.46371 8.46618 2.37015 8.48146 2.28242 8.51481C2.1947 8.54816 2.11462 8.59889 2.04699 8.66395C1.97935 8.72901 1.92557 8.80707 1.88885 8.89344C1.85213 8.97981 1.83324 9.0727 1.83331 9.16655C1.8321 9.25684 1.84869 9.34648 1.88212 9.43035C1.91556 9.51423 1.96519 9.5907 2.02818 9.65539C2.09117 9.72008 2.16629 9.77173 2.24924 9.80739C2.33219 9.84305 2.42136 9.86202 2.51165 9.86322H4.34498C4.43908 9.86825 4.53321 9.85389 4.62152 9.82102C4.70984 9.78816 4.79045 9.73748 4.85836 9.67215C4.92627 9.60682 4.98002 9.52823 5.01628 9.44125C5.05254 9.35428 5.07054 9.26077 5.06915 9.16655ZM3.29998 14.7491L4.94081 13.9332C5.02205 13.8941 5.09468 13.8393 5.15446 13.7718C5.21425 13.7043 5.25998 13.6256 5.289 13.5403C5.31802 13.4549 5.32973 13.3647 5.32346 13.2747C5.31719 13.1848 5.29306 13.097 5.25248 13.0166C5.17168 12.8542 5.03 12.7304 4.85831 12.672C4.68663 12.6136 4.49883 12.6254 4.33581 12.7049L2.69498 13.5207C2.55723 13.59 2.44677 13.7036 2.38135 13.8432C2.31592 13.9828 2.29932 14.1404 2.33423 14.2905C2.36913 14.4407 2.4535 14.5748 2.57379 14.6713C2.69408 14.7677 2.8433 14.8209 2.99748 14.8224C3.10248 14.8204 3.20576 14.7954 3.29998 14.7491Z" fill="#7E8299"/>
</svg>
