<svg width="22" height="22" viewBox="0 0 22 22" fill="none" xmlns="http://www.w3.org/2000/svg">
<path d="M19.25 6.96674C19.418 7.13809 19.5121 7.36847 19.5121 7.60841C19.5121 7.84835 19.418 8.07872 19.25 8.25007L12.5125 15.0334C12.3408 15.2041 12.1085 15.3 11.8663 15.3C11.6241 15.3 11.3918 15.2041 11.22 15.0334L9.6617 13.4659L8.0942 15.0334C7.92245 15.2041 7.69012 15.3 7.44795 15.3C7.20578 15.3 6.97345 15.2041 6.8017 15.0334L2.5942 10.8259C2.42347 10.6542 2.32764 10.4218 2.32764 10.1797C2.32764 9.93749 2.42347 9.70516 2.5942 9.53341C2.67941 9.44749 2.7808 9.3793 2.8925 9.33276C3.00421 9.28622 3.12402 9.26226 3.24503 9.26226C3.36604 9.26226 3.48585 9.28622 3.59756 9.33276C3.70926 9.3793 3.81065 9.44749 3.89586 9.53341L7.44336 13.0809L8.36003 12.1642L7.01253 10.8259C6.8418 10.6542 6.74597 10.4218 6.74597 10.1797C6.74597 9.93749 6.8418 9.70516 7.01253 9.53341C7.09775 9.44749 7.19913 9.3793 7.31084 9.33276C7.42254 9.28622 7.54235 9.26226 7.66336 9.26226C7.78437 9.26226 7.90419 9.28622 8.01589 9.33276C8.1276 9.3793 8.22898 9.44749 8.3142 9.53341L9.6617 10.8717L13.5575 6.96674C13.639 6.87025 13.7396 6.79164 13.8529 6.73585C13.9663 6.68007 14.0899 6.6483 14.2161 6.64255C14.3423 6.6368 14.4683 6.65719 14.5862 6.70244C14.7041 6.74769 14.8114 6.81683 14.9014 6.90551C14.9913 6.99419 15.062 7.1005 15.1089 7.21777C15.1558 7.33505 15.178 7.46075 15.174 7.587C15.1701 7.71325 15.14 7.83732 15.0859 7.95142C15.0317 8.06553 14.9545 8.1672 14.8592 8.25007L11 12.1734L11.9167 13.0901L17.985 6.96674C18.1555 6.80423 18.382 6.71357 18.6175 6.71357C18.8531 6.71357 19.0796 6.80423 19.25 6.96674Z" fill="#7E8299"/>
</svg>
