<svg width="22" height="22" viewBox="0 0 22 22" fill="none" xmlns="http://www.w3.org/2000/svg">
<path d="M11.0002 14.3C10.3475 14.3 9.70946 14.1064 9.16678 13.7438C8.6241 13.3812 8.20113 12.8658 7.95136 12.2628C7.70159 11.6598 7.63624 10.9963 7.76357 10.3562C7.8909 9.71605 8.2052 9.12805 8.66671 8.66653C9.12822 8.20502 9.71623 7.89073 10.3564 7.7634C10.9965 7.63607 11.66 7.70142 12.263 7.95118C12.866 8.20095 13.3814 8.62392 13.744 9.16661C14.1066 9.70929 14.3002 10.3473 14.3002 11C14.2977 11.8745 13.9493 12.7124 13.3309 13.3308C12.7126 13.9491 11.8746 14.2976 11.0002 14.3ZM11.0002 9.07499C10.6194 9.07499 10.2473 9.18789 9.93069 9.39941C9.61413 9.61093 9.36739 9.91157 9.22169 10.2633C9.076 10.6151 9.03787 11.0021 9.11215 11.3755C9.18643 11.749 9.36977 12.092 9.63898 12.3612C9.9082 12.6304 10.2512 12.8137 10.6246 12.888C10.998 12.9623 11.3851 12.9242 11.7368 12.7785C12.0886 12.6328 12.3892 12.386 12.6007 12.0695C12.8123 11.7529 12.9252 11.3807 12.9252 11C12.9252 10.4894 12.7224 9.99981 12.3613 9.63881C12.0003 9.2778 11.5107 9.07499 11.0002 9.07499ZM11.0002 19.5342C8.51613 19.4203 6.15373 18.426 4.336 16.7292C2.33766 14.9783 1.146 12.8333 1.146 11C1.146 6.92999 6.30683 2.46582 11.0002 2.46582C15.6935 2.46582 20.8543 7.04915 20.8543 11C20.8543 15.1433 15.7852 19.5342 11.0002 19.5342ZM11.0002 3.84082C7.12266 3.84082 2.521 7.71832 2.521 11C2.521 12.43 3.566 14.2267 5.271 15.6933C6.83592 17.1564 8.86182 18.0284 11.0002 18.1592C15.3635 18.1592 19.4793 14.1258 19.4793 11C19.4793 8.03915 15.0977 3.84082 11.0002 3.84082Z" fill="#7E8299"/>
</svg>
