<svg width="22" height="22" viewBox="0 0 22 22" fill="none" xmlns="http://www.w3.org/2000/svg">
<path d="M11.0001 20.8634C10.2887 20.8666 9.58934 20.6799 8.97423 20.3226L3.93256 17.4168C3.32001 17.0599 2.81155 16.5489 2.45775 15.9346C2.10395 15.3202 1.91714 14.624 1.91589 13.9151V8.08509C1.91714 7.37617 2.10395 6.67993 2.45775 6.0656C2.81155 5.45128 3.32001 4.94028 3.93256 4.58342L8.97423 1.67759C9.59016 1.32198 10.2888 1.13477 11.0001 1.13477C11.7113 1.13477 12.41 1.32198 13.0259 1.67759L18.0676 4.58342C18.6801 4.94028 19.1886 5.45128 19.5424 6.0656C19.8962 6.67993 20.083 7.37617 20.0842 8.08509V13.9151C20.083 14.624 19.8962 15.3202 19.5424 15.9346C19.1886 16.5489 18.6801 17.0599 18.0676 17.4168L13.0259 20.3226C12.4108 20.6799 11.7114 20.8666 11.0001 20.8634ZM11.0001 2.53009C10.5316 2.5303 10.0709 2.6502 9.66173 2.87842L4.58339 5.77509C4.18619 6.01505 3.8582 6.35416 3.63161 6.75913C3.40502 7.16411 3.2876 7.62104 3.29089 8.08509V13.9151C3.2876 14.3791 3.40502 14.8361 3.63161 15.241C3.8582 15.646 4.18619 15.9851 4.58339 16.2251L9.62506 19.1401C10.0343 19.3681 10.495 19.4877 10.9634 19.4877C11.4318 19.4877 11.8925 19.3681 12.3017 19.1401L17.4167 16.2251C17.8207 15.9897 18.156 15.6526 18.3892 15.2473C18.6225 14.842 18.7454 14.3827 18.7459 13.9151V8.08509C18.7454 7.61749 18.6225 7.15819 18.3892 6.7529C18.156 6.34761 17.8207 6.01048 17.4167 5.77509L12.3751 2.86009C11.9551 2.62574 11.481 2.50563 11.0001 2.51175V2.53009Z" fill="#7E8299"/>
<path d="M11 9.7168C11.2432 9.7168 11.4763 9.81337 11.6482 9.98528C11.8201 10.1572 11.9167 10.3903 11.9167 10.6335V14.9051C11.9167 15.1482 11.8201 15.3814 11.6482 15.5533C11.4763 15.7252 11.2432 15.8218 11 15.8218C10.7569 15.8218 10.5238 15.7252 10.3519 15.5533C10.18 15.3814 10.0834 15.1482 10.0834 14.9051V10.6335C10.0834 10.3903 10.18 10.1572 10.3519 9.98528C10.5238 9.81337 10.7569 9.7168 11 9.7168Z" fill="#7E8299"/>
<path d="M11.0001 8.47013C11.6329 8.47013 12.1459 7.95713 12.1459 7.3243C12.1459 6.69147 11.6329 6.17847 11.0001 6.17847C10.3673 6.17847 9.85425 6.69147 9.85425 7.3243C9.85425 7.95713 10.3673 8.47013 11.0001 8.47013Z" fill="#7E8299"/>
</svg>
