<svg width="22" height="22" viewBox="0 0 22 22" fill="none" xmlns="http://www.w3.org/2000/svg">
<path d="M8.415 1.07251C7.5085 1.07251 6.62236 1.34132 5.86864 1.84494C5.11491 2.34856 4.52745 3.06438 4.18055 3.90188C3.83365 4.73937 3.74289 5.66093 3.91973 6.55001C4.09658 7.43909 4.5331 8.25576 5.17409 8.89675C5.81509 9.53774 6.63176 9.97426 7.52084 10.1511C8.40992 10.328 9.33147 10.2372 10.169 9.89029C11.0065 9.54339 11.7223 8.95593 12.2259 8.20221C12.7295 7.44848 12.9983 6.56234 12.9983 5.65584C12.9983 5.05395 12.8798 4.45795 12.6494 3.90188C12.4191 3.3458 12.0815 2.84054 11.6559 2.41494C11.2303 1.98934 10.725 1.65173 10.169 1.4214C9.61289 1.19106 9.01689 1.07251 8.415 1.07251ZM8.415 8.91918C7.76312 8.91555 7.12691 8.71894 6.58664 8.35414C6.04638 7.98933 5.62626 7.47269 5.3793 6.86938C5.13234 6.26607 5.0696 5.60314 5.19899 4.96421C5.32839 4.32529 5.64412 3.739 6.10635 3.27932C6.56859 2.81964 7.15662 2.50716 7.79625 2.38131C8.43588 2.25546 9.09846 2.32187 9.70039 2.57217C10.3023 2.82247 10.8166 3.24544 11.1784 3.78771C11.5402 4.32999 11.7333 4.96728 11.7333 5.61918C11.7285 6.49607 11.3767 7.3354 10.755 7.95375C10.1332 8.5721 9.29191 8.91919 8.415 8.91918Z" fill="#7E8299"/>
<path d="M8.41499 10.9358C4.41833 10.9358 1.28333 13.1266 1.28333 15.9316C1.28333 18.7366 4.41833 20.9275 8.41499 20.9275C12.4117 20.9275 15.5833 18.7366 15.5833 15.9316C15.5833 13.1266 12.4117 10.9358 8.41499 10.9358ZM8.41499 19.5525C5.28916 19.5525 2.65833 17.8933 2.65833 15.9316C2.65833 13.97 5.28916 12.3108 8.41499 12.3108C11.5408 12.3108 14.1625 13.97 14.1625 15.9316C14.1625 17.8933 11.5317 19.5525 8.41499 19.5525Z" fill="#7E8299"/>
<path d="M15.2441 10.4316C16.2361 10.4097 17.1786 9.9947 17.8646 9.27784C18.5505 8.56098 18.9235 7.601 18.9016 6.60909C18.8798 5.61718 18.4647 4.67459 17.7479 3.98868C17.031 3.30276 16.0711 2.92971 15.0791 2.95159C14.8968 2.95159 14.7219 3.02403 14.593 3.15296C14.4641 3.28189 14.3916 3.45676 14.3916 3.63909C14.3916 3.82143 14.4641 3.9963 14.593 4.12523C14.7219 4.25416 14.8968 4.32659 15.0791 4.32659C15.3897 4.31937 15.6987 4.37339 15.9884 4.48557C16.2781 4.59775 16.5428 4.76589 16.7676 4.9804C16.9923 5.1949 17.1725 5.45156 17.2981 5.73573C17.4236 6.01991 17.4919 6.32602 17.4991 6.63659C17.5064 6.94717 17.4523 7.25613 17.3402 7.54583C17.228 7.83553 17.0598 8.10029 16.8453 8.32501C16.6308 8.54973 16.3742 8.73 16.09 8.85552C15.8058 8.98105 15.4997 9.04937 15.1891 9.05659C15.061 9.06603 14.9323 9.06603 14.8041 9.05659C14.6237 9.03532 14.4421 9.08443 14.2969 9.1937C14.1518 9.30297 14.0544 9.464 14.025 9.64326C14.012 9.73298 14.017 9.82438 14.0395 9.91218C14.062 9.99999 14.1017 10.0825 14.1562 10.1549C14.2107 10.2273 14.2791 10.2882 14.3572 10.3341C14.4354 10.3801 14.5218 10.4101 14.6116 10.4224C14.7855 10.4367 14.9603 10.4367 15.1341 10.4224L15.2441 10.4316Z" fill="#7E8299"/>
<path d="M16.5 19.0024C18.975 18.6083 20.6983 17.0774 20.6983 15.2624C20.6983 13.1174 18.3333 11.4399 15.3175 11.4399C15.1352 11.4399 14.9603 11.5124 14.8314 11.6413C14.7024 11.7702 14.63 11.9451 14.63 12.1274C14.63 12.3098 14.7024 12.4846 14.8314 12.6136C14.9603 12.7425 15.1352 12.8149 15.3175 12.8149C17.49 12.8149 19.3233 13.9333 19.3233 15.2624C19.3233 16.3624 18.0492 17.3616 16.28 17.6366C16.1012 17.6681 15.9418 17.7681 15.8357 17.9153C15.7295 18.0625 15.685 18.2454 15.7117 18.4249C15.7378 18.5861 15.8204 18.7326 15.9446 18.8384C16.0689 18.9442 16.2268 19.0024 16.39 19.0024H16.5Z" fill="#7E8299"/>
</svg>
