<svg width="22" height="22" viewBox="0 0 22 22" fill="none" xmlns="http://www.w3.org/2000/svg">
<path d="M8.02078 20.3041C7.60267 20.3007 7.19241 20.1902 6.82911 19.9833L5.33495 19.1124C5.06307 18.9569 4.82493 18.7487 4.63448 18.5C4.44403 18.2513 4.30509 17.9671 4.22578 17.6641C4.14191 17.358 4.11979 17.0382 4.16071 16.7235C4.20163 16.4087 4.30476 16.1053 4.46411 15.8308L4.86745 15.1433C4.6696 14.8501 4.49197 14.5439 4.33578 14.2266H3.51078C3.1978 14.2254 2.88811 14.1626 2.59941 14.0417C2.31071 13.9208 2.04865 13.7442 1.82819 13.5221C1.60773 13.2999 1.43318 13.0365 1.31452 12.7469C1.19586 12.4572 1.13541 12.1471 1.13661 11.8341V10.0833C1.13927 9.77741 1.20216 9.47507 1.3217 9.19353C1.44124 8.91199 1.61507 8.65676 1.83328 8.44243C2.05333 8.22231 2.31497 8.04817 2.60296 7.93014C2.89095 7.81211 3.19955 7.75255 3.51078 7.75493H4.31745C4.47479 7.43641 4.65557 7.13001 4.85828 6.83826L4.45495 6.11409C4.29947 5.84147 4.1998 5.54062 4.16176 5.22909C4.12373 4.91755 4.14808 4.60156 4.2334 4.29954C4.31871 3.99751 4.46329 3.71548 4.65871 3.4699C4.85413 3.22431 5.09647 3.02008 5.37161 2.86909L6.87495 2.00743C7.14817 1.85441 7.44888 1.75674 7.75987 1.72C8.07086 1.68326 8.38605 1.70816 8.68741 1.79329C8.98877 1.87842 9.2704 2.02211 9.51621 2.21614C9.76201 2.41017 9.96717 2.65074 10.1199 2.92409L10.5141 3.61159C10.8377 3.59326 11.1622 3.59326 11.4858 3.61159L11.9166 2.88743C12.0734 2.6165 12.282 2.3791 12.5305 2.18879C12.779 1.99848 13.0625 1.85898 13.3649 1.77826C13.6707 1.69178 13.9909 1.66831 14.3061 1.70928C14.6212 1.75025 14.9248 1.8548 15.1983 2.01659L16.6924 2.87826C17.2392 3.19456 17.638 3.71496 17.8013 4.32513C17.9646 4.9353 17.879 5.58534 17.5633 6.13243L17.1691 6.82909C17.3755 7.12023 17.5593 7.42667 17.7191 7.74576H18.5441C19.1755 7.75301 19.7783 8.00954 20.2213 8.45941C20.6644 8.90929 20.9116 9.51605 20.9091 10.1474V11.9166C20.9019 12.5448 20.6479 13.1449 20.202 13.5874C19.7561 14.0299 19.154 14.2792 18.5258 14.2816H17.7099C17.5597 14.5789 17.3913 14.8666 17.2058 15.1433L17.6183 15.8674C17.7713 16.1407 17.869 16.4414 17.9057 16.7523C17.9425 17.0633 17.9175 17.3785 17.8324 17.6799C17.7473 17.9813 17.6036 18.2629 17.4096 18.5087C17.2155 18.7545 16.975 18.9596 16.7016 19.1124L15.1983 19.9741C14.9254 20.1283 14.6246 20.227 14.3133 20.2644C14.0021 20.3018 13.6865 20.2771 13.3848 20.1919C13.0831 20.1067 12.8013 19.9626 12.5556 19.7678C12.3099 19.5731 12.1052 19.3317 11.9533 19.0574L11.5499 18.3699C11.2083 18.3974 10.865 18.3974 10.5233 18.3699L10.1016 19.0849C9.89454 19.4548 9.59255 19.7628 9.22679 19.9771C8.86102 20.1914 8.44471 20.3043 8.02078 20.3041ZM3.52911 9.16659C3.26314 9.16601 3.00712 9.26775 2.81411 9.45076C2.7206 9.5448 2.64656 9.65635 2.59623 9.77904C2.54589 9.90173 2.52026 10.0331 2.52078 10.1658V11.8891C2.53688 12.1421 2.6477 12.3798 2.83117 12.5547C3.01464 12.7297 3.25729 12.8292 3.51078 12.8333H4.77578C4.91154 12.8311 5.04475 12.8702 5.15772 12.9456C5.27069 13.0209 5.35808 13.1288 5.40828 13.2549C5.62196 13.7587 5.89921 14.2331 6.23328 14.6666C6.31517 14.7762 6.36388 14.907 6.37363 15.0435C6.38338 15.18 6.35376 15.3164 6.28828 15.4366L5.65578 16.5091C5.52716 16.7442 5.49119 17.0188 5.55495 17.2791C5.62441 17.5348 5.79257 17.7524 6.02245 17.8841L7.51661 18.7549C7.63134 18.8233 7.75881 18.8675 7.89121 18.8848C8.02361 18.9021 8.15816 18.8923 8.28661 18.8558C8.54349 18.784 8.76322 18.6168 8.90078 18.3883L9.53328 17.2883C9.60302 17.1715 9.70501 17.0774 9.82697 17.0172C9.94894 16.957 10.0857 16.9334 10.2208 16.9491C10.7505 17.0133 11.2861 17.0133 11.8158 16.9491C11.9503 16.9276 12.0883 16.9476 12.2111 17.0066C12.334 17.0655 12.4359 17.1606 12.5033 17.2791L13.1266 18.3608C13.2592 18.5929 13.4785 18.7628 13.7363 18.8333C13.9942 18.9038 14.2694 18.869 14.5016 18.7366L15.9958 17.8749C16.1119 17.8115 16.2141 17.7251 16.296 17.6212C16.3779 17.5172 16.4379 17.3977 16.4724 17.2699C16.5362 17.0097 16.5002 16.735 16.3716 16.4999L15.7391 15.3999C15.6654 15.2868 15.6261 15.1546 15.6261 15.0195C15.6261 14.8844 15.6654 14.7523 15.7391 14.6391C16.0616 14.2227 16.3296 13.7667 16.5366 13.2824C16.5818 13.1522 16.6677 13.04 16.7816 12.9624C16.8955 12.8848 17.0314 12.846 17.1691 12.8516H18.4158C18.6792 12.862 18.9365 12.7708 19.1344 12.5967C19.3324 12.4227 19.4558 12.1791 19.4791 11.9166V10.1749C19.4796 10.0423 19.454 9.9109 19.4037 9.78821C19.3533 9.66552 19.2793 9.55396 19.1858 9.45993C19.0945 9.36462 18.985 9.28871 18.8637 9.23673C18.7424 9.18475 18.6119 9.15778 18.4799 9.15743H17.2241C17.0881 9.15518 16.9558 9.11319 16.8434 9.03664C16.731 8.96008 16.6435 8.8523 16.5916 8.72659C16.3777 8.22662 16.0971 7.75792 15.7574 7.33326C15.6748 7.2237 15.6264 7.09217 15.6182 6.95518C15.6101 6.8182 15.6426 6.68185 15.7116 6.56326L16.3349 5.48159C16.4673 5.2494 16.5021 4.97413 16.4316 4.7163C16.3612 4.45847 16.1912 4.23917 15.9591 4.10659L14.4649 3.20826C14.2487 3.08314 13.9923 3.04698 13.7499 3.10743C13.4922 3.17744 13.2719 3.34514 13.1358 3.57493L12.5033 4.67493C12.4353 4.79334 12.3336 4.88883 12.2112 4.94923C12.0888 5.00963 11.9511 5.03221 11.8158 5.01409C11.3014 4.94996 10.781 4.94996 10.2666 5.01409C10.1326 5.03155 9.99648 5.00859 9.87562 4.94817C9.75476 4.88774 9.65471 4.79259 9.58828 4.67493L8.92828 3.58409C8.794 3.35383 8.57472 3.18545 8.31759 3.11517C8.06046 3.04488 7.78602 3.07831 7.55328 3.20826L6.04995 4.05159C5.81811 4.18435 5.64779 4.40296 5.57576 4.66022C5.50373 4.91748 5.53576 5.19275 5.66495 5.42659L6.28828 6.53576C6.36475 6.65739 6.40062 6.80015 6.39074 6.94347C6.38085 7.0868 6.32572 7.22328 6.23328 7.33326C5.90187 7.7553 5.62471 8.21723 5.40828 8.70826C5.35702 8.83367 5.26938 8.94086 5.15665 9.01602C5.04392 9.09117 4.91126 9.13085 4.77578 9.12993H3.52911V9.16659ZM10.9999 14.6666C10.2747 14.6666 9.56584 14.4515 8.96286 14.0486C8.35988 13.6458 7.88991 13.0731 7.61239 12.4031C7.33487 11.7331 7.26226 10.9959 7.40373 10.2846C7.54521 9.57333 7.89443 8.92 8.40722 8.4072C8.92002 7.89441 9.57335 7.54519 10.2846 7.40371C10.9959 7.26224 11.7331 7.33485 12.4031 7.61237C13.0731 7.88989 13.6458 8.35986 14.0487 8.96284C14.4516 9.56582 14.6666 10.2747 14.6666 10.9999C14.6666 11.9724 14.2803 12.905 13.5927 13.5927C12.905 14.2803 11.9724 14.6666 10.9999 14.6666ZM10.9999 8.70826C10.5467 8.70826 10.1036 8.84266 9.72677 9.09448C9.3499 9.34629 9.05617 9.7042 8.88272 10.1229C8.70927 10.5417 8.66389 11.0025 8.75231 11.447C8.84074 11.8916 9.059 12.2999 9.37949 12.6204C9.69999 12.9409 10.1083 13.1591 10.5529 13.2476C10.9974 13.336 11.4582 13.2906 11.8769 13.1172C12.2957 12.9437 12.6536 12.65 12.9054 12.2731C13.1572 11.8962 13.2916 11.4532 13.2916 10.9999C13.2916 10.3921 13.0502 9.80925 12.6204 9.37947C12.1906 8.9497 11.6077 8.70826 10.9999 8.70826Z" fill="#7E8299"/>
</svg>
