<svg width="22" height="22" viewBox="0 0 22 22" fill="none" xmlns="http://www.w3.org/2000/svg">
<path d="M7.59003 20.8541C6.82594 20.8469 6.09252 20.5525 5.53548 20.0295C4.97845 19.5064 4.63857 18.7929 4.58336 18.0308L3.9142 8.46078C3.90818 8.3705 3.92 8.27991 3.94899 8.1942C3.97798 8.10848 4.02357 8.02932 4.08315 7.96122C4.14274 7.89312 4.21515 7.83743 4.29626 7.79732C4.37737 7.75721 4.46558 7.73347 4.55586 7.72745C4.64615 7.72143 4.73673 7.73325 4.82245 7.76224C4.90816 7.79123 4.98733 7.83682 5.05542 7.8964C5.12352 7.95599 5.17921 8.0284 5.21932 8.10951C5.25944 8.19062 5.28318 8.27883 5.2892 8.36911L5.94003 17.9391C5.97253 18.3606 6.1638 18.754 6.47518 19.0398C6.78656 19.3257 7.19485 19.4827 7.61753 19.4791L14.5384 19.3966C14.9589 19.3925 15.3619 19.2279 15.6652 18.9366C15.9684 18.6452 16.149 18.2491 16.17 17.8291L16.7109 8.36911C16.725 8.18676 16.8093 8.01699 16.9461 7.89558C17.0829 7.77418 17.2615 7.71061 17.4442 7.71828C17.625 7.73008 17.7938 7.81277 17.914 7.94838C18.0341 8.08399 18.0959 8.26154 18.0859 8.44245L17.545 17.9116C17.4989 18.6772 17.1655 19.3971 16.6114 19.9273C16.0574 20.4576 15.3235 20.7591 14.5567 20.7716L7.63586 20.8541H7.59003ZM13.7317 11.7791C13.7293 11.5975 13.6561 11.424 13.5277 11.2956C13.3993 11.1672 13.2258 11.094 13.0442 11.0916H8.95586C8.77353 11.0916 8.59866 11.164 8.46973 11.293C8.3408 11.4219 8.26836 11.5968 8.26836 11.7791C8.26836 11.9614 8.3408 12.1363 8.46973 12.2652C8.59866 12.3942 8.77353 12.4666 8.95586 12.4666H13.0442C13.136 12.4691 13.2274 12.4531 13.3129 12.4196C13.3985 12.3862 13.4764 12.3359 13.5422 12.2718C13.608 12.2078 13.6603 12.1311 13.696 12.0465C13.7317 11.9619 13.7501 11.871 13.75 11.7791H13.7317ZM13.0167 15.1708C13.0167 14.9884 12.9443 14.8136 12.8153 14.6846C12.6864 14.5557 12.5115 14.4833 12.3292 14.4833H9.67086C9.48853 14.4833 9.31366 14.5557 9.18473 14.6846C9.0558 14.8136 8.98336 14.9884 8.98336 15.1708C8.98336 15.3531 9.0558 15.528 9.18473 15.6569C9.31366 15.7858 9.48853 15.8583 9.67086 15.8583H12.3292C12.5108 15.8559 12.6843 15.7827 12.8127 15.6543C12.9411 15.5259 13.0143 15.3524 13.0167 15.1708ZM19.25 5.97661C19.2277 6.1402 19.1465 6.29004 19.0217 6.39804C18.8968 6.50604 18.7368 6.56479 18.5717 6.56328H18.4709C13.5227 5.88326 8.50483 5.88326 3.5567 6.56328C3.46574 6.57899 3.37257 6.57647 3.28259 6.55586C3.19262 6.53526 3.10763 6.49698 3.03258 6.44324C2.95752 6.38951 2.8939 6.3214 2.84539 6.24287C2.79689 6.16434 2.76447 6.07695 2.75003 5.98578C2.72094 5.80589 2.76446 5.6218 2.87103 5.47398C2.9776 5.32616 3.1385 5.2267 3.31836 5.19745C3.43753 5.19745 4.70253 4.97745 6.6917 4.82161L7.0217 3.09828C7.12643 2.54815 7.42012 2.05192 7.85197 1.69539C8.28382 1.33886 8.82669 1.14445 9.3867 1.14578H12.6225C13.1867 1.14309 13.7339 1.33912 14.168 1.69949C14.6021 2.05986 14.8955 2.56156 14.9967 3.11661L15.3084 4.82161C16.3992 4.91328 17.5175 5.02328 18.6634 5.19745C18.7532 5.20981 18.8396 5.23982 18.9178 5.28573C18.996 5.33165 19.0643 5.39257 19.1188 5.46498C19.1733 5.5374 19.213 5.61989 19.2355 5.70769C19.258 5.7955 19.263 5.88689 19.25 5.97661ZM10.5967 4.66578H13.8784L13.64 3.36411C13.5971 3.1278 13.4728 2.914 13.2885 2.75991C13.1043 2.60583 12.8719 2.52121 12.6317 2.52078H9.39586C9.15589 2.52043 8.92324 2.60342 8.73766 2.75556C8.55208 2.90771 8.42508 3.11956 8.37836 3.35495L8.13086 4.66578H10.5967Z" fill="#7E8299"/>
</svg>
