<svg width="22" height="22" viewBox="0 0 22 22" fill="none" xmlns="http://www.w3.org/2000/svg">
<path d="M5.25244 9.09058C5.07011 9.09058 4.89524 9.16011 4.76631 9.28389C4.63737 9.40766 4.56494 9.57553 4.56494 9.75058C4.56494 9.92562 4.63737 10.0935 4.76631 10.2173C4.89524 10.341 5.07011 10.4106 5.25244 10.4106H10.8991C11.0814 10.4106 11.2563 10.341 11.3852 10.2173C11.5142 10.0935 11.5866 9.92562 11.5866 9.75058C11.5866 9.57553 11.5142 9.40766 11.3852 9.28389C11.2563 9.16011 11.0814 9.09058 10.8991 9.09058H5.25244Z" fill="#7E8299"/>
<path d="M19.3146 9.98804H17.3621C16.6814 9.98804 16.0285 10.2476 15.5472 10.7097C15.0658 11.1718 14.7954 11.7985 14.7954 12.452C14.7954 13.1055 15.0658 13.7323 15.5472 14.1943C16.0285 14.6564 16.6814 14.916 17.3621 14.916H19.3146C19.723 14.916 20.1147 14.7603 20.4035 14.483C20.6923 14.2058 20.8546 13.8297 20.8546 13.4376V11.44C20.8474 11.0525 20.6819 10.6832 20.3939 10.4117C20.1059 10.1401 19.7183 9.98798 19.3146 9.98804ZM19.4796 13.4376C19.4796 13.4796 19.4622 13.5199 19.4312 13.5496C19.4003 13.5793 19.3583 13.596 19.3146 13.596H17.3621C17.046 13.596 16.7429 13.4755 16.5194 13.261C16.296 13.0464 16.1704 12.7554 16.1704 12.452C16.1704 12.1486 16.296 11.8576 16.5194 11.6431C16.7429 11.4286 17.046 11.308 17.3621 11.308H19.3146C19.3583 11.308 19.4003 11.3247 19.4312 11.3544C19.4622 11.3841 19.4796 11.4244 19.4796 11.4664V13.4376Z" fill="#7E8299"/>
<path d="M18.4252 16.1041C18.2514 16.0571 18.0654 16.0767 17.9063 16.1588C17.7473 16.2408 17.6277 16.379 17.5727 16.5441C17.3986 17.0755 17.054 17.5404 16.588 17.8723C16.1221 18.2042 15.5587 18.3862 14.9785 18.3921H5.23434C4.50499 18.3921 3.80552 18.1139 3.2898 17.6188C2.77407 17.1238 2.48434 16.4523 2.48434 15.7521V9.19609C2.49353 9.16742 2.49353 9.13676 2.48434 9.10809C2.49636 8.41557 2.7914 7.75532 3.30582 7.2697C3.82025 6.78408 4.51287 6.51199 5.23434 6.51209H14.951C15.5524 6.51022 16.1372 6.70151 16.6122 7.05552C17.0873 7.40953 17.4254 7.90592 17.5727 8.46569C17.6176 8.63606 17.7313 8.78231 17.8886 8.87225C18.0459 8.96219 18.2339 8.98846 18.4114 8.94529C18.5889 8.90211 18.7412 8.79302 18.8349 8.64201C18.9286 8.49101 18.956 8.31046 18.911 8.14009C18.686 7.29946 18.1771 6.55415 17.4639 6.02074C16.7507 5.48733 15.8734 5.19591 14.9693 5.19209H14.3827C14.2137 4.37655 13.7564 3.64208 13.0883 3.11292C12.4202 2.58376 11.5822 2.29239 10.716 2.28809H4.94101C3.93684 2.2904 2.97435 2.67377 2.26343 3.3546C1.55252 4.03543 1.15084 4.95849 1.14601 5.92249V15.7785C1.1448 16.2939 1.24936 16.8045 1.4537 17.2811C1.65805 17.7577 1.95818 18.191 2.33697 18.5563C2.71575 18.9216 3.16577 19.2117 3.66133 19.41C4.15689 19.6083 4.68829 19.7109 5.22517 19.7121H14.9693C15.8456 19.7151 16.6995 19.4459 17.4033 18.9447C18.1071 18.4435 18.6231 17.7372 18.8743 16.9313C18.9289 16.7644 18.9123 16.5836 18.8281 16.4285C18.7438 16.2734 18.5989 16.1567 18.4252 16.1041ZM2.52101 5.92249C2.52583 5.30858 2.78263 4.72126 3.23569 4.28797C3.68874 3.85468 4.3015 3.61039 4.94101 3.60809H10.6793C11.187 3.60457 11.6826 3.75614 12.0946 4.04089C12.5065 4.32565 12.8135 4.72881 12.971 5.19209H5.23434C2.94267 5.19209 2.48434 6.26569 2.48434 6.26569L2.52101 5.92249Z" fill="#7E8299"/>
</svg>
