<svg width="32" height="33" viewBox="0 0 32 33" fill="none" xmlns="http://www.w3.org/2000/svg">
<g clip-path="url(#clip0_451_59561)">
<path d="M31.6598 16.8599C31.6598 15.8066 31.5665 14.8066 31.4065 13.8333H16.3398V19.8466H24.9665C24.5798 21.8199 23.4465 23.4866 21.7665 24.6199V28.6199H26.9132C29.9265 25.8333 31.6598 21.7266 31.6598 16.8599Z" fill="#4285F4"/>
<path d="M16.3405 32.5001C20.6605 32.5001 24.2739 31.0601 26.9139 28.6201L21.7672 24.6201C20.3272 25.5801 18.5005 26.1668 16.3405 26.1668C12.1672 26.1668 8.63388 23.3535 7.36722 19.5535H2.06055V23.6735C4.68721 28.9001 10.0872 32.5001 16.3405 32.5001Z" fill="#34A853"/>
<path d="M7.36651 19.5536C7.03318 18.5936 6.85984 17.5669 6.85984 16.5002C6.85984 15.4336 7.04651 14.4069 7.36651 13.4469V9.3269H2.05984C0.966509 11.4869 0.339844 13.9136 0.339844 16.5002C0.339844 19.0869 0.966509 21.5136 2.05984 23.6736L7.36651 19.5536Z" fill="#FBBC05"/>
<path d="M16.3405 6.83333C18.7005 6.83333 20.8072 7.64667 22.4739 9.23334L27.0339 4.67333C24.2739 2.08667 20.6605 0.5 16.3405 0.5C10.0872 0.5 4.68721 4.1 2.06055 9.32667L7.36722 13.4467C8.63388 9.64667 12.1672 6.83333 16.3405 6.83333Z" fill="#EA4335"/>
</g>
<defs>
<clipPath id="clip0_451_59561">
<rect width="32" height="32" fill="white" transform="translate(0 0.5)"/>
</clipPath>
</defs>
</svg>
